<svg width="479" height="181" viewBox="0 0 479 181" fill="none" xmlns="http://www.w3.org/2000/svg">
<g clip-path="url(#clip0_12653_1082)">
<path d="M449.266 101.761L462.426 96.6264L467.961 82.4197L476.739 116.357L449.266 101.761Z" fill="white"/>
<path d="M449.296 84.6129C427.393 86.5521 437.457 112.702 426.2 104.372C414.942 96.0423 428.764 79.3977 421.264 67.3806C416.538 59.8296 395.604 63.1203 378.442 69.5108C371.926 68.5412 390.877 73.918 391.071 74.1531C391.373 74.6522 391.637 75.1727 391.861 75.7103C392.301 76.1189 392.695 76.5719 393.039 77.0618C394.619 79.001 362.651 86.1701 363.636 88.4913C402.716 88.6822 417.91 66.9987 412.587 93.1335C407.651 116.962 424.425 121.604 435.474 115.596C446.523 109.587 433.506 92.3696 447.909 89.2699C463.312 85.9791 463.908 98.1725 463.908 98.1725L465.399 97.0119C465.683 97.1735 463.908 85.9498 449.296 84.6129Z" fill="white"/>
<path d="M311.33 83.4224C308.19 83.9996 305.228 84.3993 302.668 84.7841C300.109 85.1689 297.549 85.3761 295.227 85.7609L288.128 86.353C285.777 86.5454 283.008 86.9302 280.255 87.3298C278.406 87.427 276.563 87.6196 274.734 87.9071C272.963 88.0995 270.269 88.2919 266.652 88.8839L271.579 65.4689C272.174 62.938 272.576 60.5995 272.963 58.2461C273.35 55.8928 273.945 53.3766 274.347 51.0381C274.915 49.247 275.372 47.4231 275.716 45.5765C276.311 43.4304 276.713 41.4767 277.1 40.115L271.579 41.0771C272.174 36.4 272.963 32.4926 273.558 29.3844C273.945 27.6231 274.347 26.2614 274.54 24.9441C274.787 23.817 275.116 22.709 275.522 21.6287C275.924 20.6519 276.118 19.8822 276.505 19.0978C277.695 18.9054 279.065 18.5057 281.044 18.1209C282.985 17.537 284.979 17.1453 286.997 16.9516C289.17 16.552 290.733 16.3596 292.518 15.9748C294.304 15.59 295.867 15.3827 296.656 15.1903C298.62 14.8055 300.585 14.4059 302.951 14.0211C305.283 13.4447 307.657 13.0537 310.05 12.8518C310.75 12.6481 311.483 12.5827 312.208 12.6594C313.592 12.467 314.768 12.2598 315.959 12.0673C317.149 11.8749 318.519 11.6825 319.501 11.4901C320.175 11.3789 320.857 11.3195 321.54 11.3125V14.6279C321.663 16.1895 321.593 17.7603 321.331 19.305C321.138 21.0663 321.138 23.0052 320.751 25.2253C320.464 27.4729 320.001 29.6949 319.367 31.8709C317.978 31.9877 316.597 32.1804 315.229 32.4482C313.071 32.6406 310.899 33.0402 308.339 33.425C305.779 33.8098 303.606 34.2095 301.642 34.5943C300.444 34.7128 299.256 34.9106 298.085 35.1863L296.239 43.8744C298.01 43.682 299.588 43.2824 300.972 43.09C302.356 42.8976 303.948 42.7052 305.109 42.5128C306.27 42.3204 307.669 42.1131 309.053 41.9207C310.437 41.7283 311.806 41.3435 313.384 41.1363C313.492 43.22 313.428 45.3091 313.191 47.3823C312.962 50.6516 312.564 53.9072 312 57.136C311.211 57.3432 310.229 57.3433 309.023 57.7281C307.818 58.1129 306.851 58.3053 305.66 58.5125C304.469 58.7197 303.502 58.8973 302.311 59.0897C301.121 59.2822 300.54 59.4894 299.751 59.6818C298.963 59.8742 297.593 60.0666 296.016 60.4514C294.523 60.6387 293.064 61.0374 291.685 61.6355C291.617 62.6438 291.417 63.639 291.09 64.5957C290.826 65.4278 290.627 66.2789 290.494 67.1414C292.084 67.0559 293.666 66.8581 295.227 66.5494C296.998 66.1646 298.576 65.9722 300.153 65.5725L312.372 63.0416C312.567 64.0156 312.632 65.0109 312.565 66.0018C312.733 67.4756 312.798 68.9593 312.759 70.442C312.759 72.1885 312.759 74.1422 312.565 76.3624C311.926 78.7453 311.732 81.0839 311.33 83.4224Z" fill="white"/>
<path d="M360.222 62.7905C360.438 65.4904 360.438 68.2033 360.222 70.9031C360.028 74.652 359.641 78.4009 359.238 82.3598C356.674 82.9596 353.916 83.3495 350.293 84.1443C346.671 84.939 343.391 85.5239 339.44 86.3186C335.489 87.1134 331.748 87.5033 327.797 88.0881C324.14 88.6374 320.447 88.9031 316.75 88.8829C316.75 88.6879 316.944 87.5033 317.346 85.5239C317.749 83.5444 318.136 81.0252 318.718 78.026C319.299 75.0269 320.104 71.6979 320.701 67.949C321.297 64.2001 322.072 60.8261 322.862 57.0772C323.652 53.3283 324.443 50.1492 325.039 47.0001C325.635 43.851 326.425 41.4517 326.813 39.5023C327.007 38.5126 327.409 36.923 328.006 34.5537C328.602 32.1844 329.183 29.6202 329.78 27.0559C330.376 24.4917 331.151 21.9124 331.748 19.5581C332.344 17.2038 332.94 15.4043 333.134 14.6246C334.379 14.5181 335.631 14.5181 336.876 14.6246C338.523 14.5959 340.171 14.661 341.81 14.8195C343.663 14.9179 345.509 15.1131 347.341 15.4043C349.309 15.6143 351.083 16.0042 352.47 16.1991C352.276 16.7989 351.873 17.9836 351.292 19.963C350.711 21.9424 350.293 23.9068 349.503 26.2762C348.713 28.6455 348.325 30.6249 347.729 32.6043C347.133 34.5837 346.745 35.9633 346.551 36.5632C345.359 41.4967 344.375 46.4453 343.003 51.5588C341.632 56.6723 340.827 61.6358 340.022 66.5544C341.602 66.3445 343.376 66.1495 344.956 65.9546C346.685 65.7371 348.398 65.4065 350.084 64.9649C350.278 64.7699 350.875 64.7699 351.859 64.575C352.99 64.4618 354.112 64.2612 355.213 63.9752C356.599 63.7802 357.389 63.5853 358.567 63.3903C359.081 63.0976 359.641 62.8948 360.222 62.7905Z" fill="white"/>
<path d="M407.086 62.7905C407.301 65.4904 407.301 68.2033 407.086 70.9031C406.893 74.652 406.105 75.2519 405.718 79.1957C403.162 79.7955 399.61 81.775 396.073 82.5547C392.535 83.3345 390.128 85.5538 386.234 86.3186C382.34 87.0834 378.565 87.5033 374.626 88.0881C370.981 88.6374 367.299 88.9031 363.613 88.8829C363.613 88.6879 363.807 87.5033 364.208 85.5239C364.609 83.5444 364.995 81.0252 365.575 78.026C366.155 75.0269 366.957 71.6979 367.552 67.949C368.146 64.2001 368.919 60.8261 369.707 57.0772C370.495 53.3283 371.282 50.1492 371.877 47.0001C372.471 43.851 373.259 41.4517 373.645 39.5023C373.839 38.5126 374.24 36.923 374.834 34.5537C375.429 32.1844 376.009 29.6202 376.603 27.0559C377.198 24.4917 377.97 21.9124 378.565 19.5581C379.159 17.2038 379.739 15.4043 379.947 14.6246C381.188 14.5181 382.436 14.5181 383.677 14.6246C385.32 14.5959 386.962 14.661 388.597 14.8195C390.444 14.9179 392.284 15.1131 394.111 15.4043C396.073 15.6143 397.841 16.0042 399.224 16.1991C399.03 16.7989 398.629 17.9836 398.049 19.963C397.47 21.9424 397.054 23.9068 396.266 26.2762C395.478 28.6455 395.092 30.6249 394.497 32.6043C393.903 34.5837 393.516 35.9633 393.323 36.5632C392.134 41.4967 391.153 46.4453 389.786 51.5588C388.419 56.6723 387.616 61.6358 386.813 66.5544C388.389 66.3445 390.157 66.1495 391.733 65.9546C393.457 65.7371 395.164 65.4065 396.846 64.9649C397.039 64.7699 397.633 64.7699 398.614 64.575C399.742 64.4605 400.86 64.26 401.958 63.9752C403.34 63.7802 404.128 63.5853 405.302 63.3903C405.848 63.0648 406.456 62.8603 407.086 62.7905Z" fill="white"/>
<path d="M190.699 3.23218L216.325 8.65708L219.789 88.884L195.138 82.8857L190.699 3.23218Z" fill="white"/>
<path d="M210.09 45.5171L237.563 42.0178V61.4107H211.405L210.09 45.5171Z" fill="white"/>
<path d="M241.688 6.21318L269.882 0L255.74 88.8839L234.328 87.4116L241.688 6.21318Z" fill="white"/>
<path d="M185.848 176.668C186.816 174.34 187.594 172.012 188.782 169.685C189.97 167.357 191.115 165.014 192.083 163.276C193.178 161.12 194.403 159.034 195.751 157.029C198.695 158.437 201.746 159.605 204.877 160.521C208.748 161.489 212.728 161.95 216.717 161.891C218.057 161.95 219.391 161.682 220.605 161.11C221.263 160.838 221.862 160.437 222.365 159.931C222.869 159.425 223.268 158.825 223.539 158.163C223.73 157.589 223.539 157.191 222.365 156.808C221.192 156.425 220.238 156.027 218.683 155.453C217.128 154.878 215.382 154.48 213.621 154.082C211.861 153.685 210.32 153.11 208.779 152.727C207.019 152.138 205.273 151.372 202.911 150.399C200.761 149.265 198.785 147.826 197.042 146.127C195.379 144.313 194.066 142.205 193.169 139.91C192.243 137.023 192.106 133.939 192.773 130.981C193.366 126.653 194.964 122.524 197.438 118.93C199.648 115.354 202.322 112.089 205.39 109.221C207.172 107.347 209.138 105.659 211.259 104.183C213.472 102.462 215.817 100.92 218.272 99.5712C220.796 98.2157 223.128 97.0519 225.461 96.0795C227.472 95.0689 229.641 94.4111 231.873 94.1347C233.271 93.8083 234.708 93.6794 236.142 93.7517C237.77 93.6809 239.401 93.8095 240.998 94.1347C242.475 94.3927 243.872 94.993 245.077 95.888C245.748 96.246 246.337 96.742 246.805 97.3436C247.272 97.9452 247.608 98.6389 247.791 99.3796C248.998 103.08 249.201 107.037 248.378 110.842C248.188 112.197 247.982 113.361 247.601 115.262C247.219 117.162 247.014 118.562 246.442 120.506C245.869 122.451 245.664 123.807 245.268 125.354C245 126.709 244.541 128.019 243.903 129.243C242.103 129.473 240.29 129.601 238.475 129.626H233.222C231.661 129.682 230.097 129.633 228.542 129.479C227.45 129.289 226.348 129.161 225.241 129.096C225.57 128.209 225.83 127.298 226.019 126.37C226.362 125.097 226.622 123.803 226.796 122.495C227.067 121.083 227.258 119.657 227.368 118.223C227.574 116.853 227.765 116.087 227.574 115.689C227.383 115.291 226.987 115.114 225.432 115.88C223.827 116.823 222.327 117.934 220.957 119.195C219.49 120.742 217.861 122.289 216.306 124.042C215.133 125.375 214.297 126.972 213.871 128.698C213.697 129.489 213.73 130.312 213.967 131.086C214.203 131.86 214.635 132.56 215.22 133.118C216.363 133.977 217.604 134.694 218.918 135.254C220.369 135.612 221.795 136.064 223.187 136.609C224.742 136.992 226.121 137.184 227.589 137.582C229.102 137.765 230.583 138.157 231.99 138.746C233.927 139.32 235.878 139.91 237.859 140.69C239.968 141.428 241.709 142.96 242.715 144.963C243.353 146.046 243.813 147.225 244.08 148.455C244.256 149.545 244.32 150.651 244.27 151.755C244.229 152.864 244.096 153.968 243.874 155.055C243.688 156.224 243.498 157.206 243.302 158.001C241.468 163.057 238.628 167.684 234.954 171.6C231.036 175.502 226.13 178.253 220.766 179.555C219.416 179.953 218.052 180.145 216.115 180.528C214.437 180.751 212.747 180.879 211.054 180.911C206.903 181.133 202.74 180.94 198.627 180.336C196.103 179.953 194.225 179.555 192.215 179.172C190.043 178.47 187.917 177.634 185.848 176.668Z" fill="white"/>
<path d="M308.579 121.088C308.365 123.424 307.772 125.71 306.824 127.857C305.968 130.127 304.709 132.226 303.108 134.054C299.941 137.378 296.487 140.419 292.787 143.143C289.044 145.835 285.055 148.17 280.872 150.118C277.555 151.865 274.237 153.216 271.111 154.523C271.129 154.981 271.064 155.438 270.919 155.873C270.651 156.632 270.454 157.414 270.33 158.208C270.094 159.695 269.769 161.166 269.356 162.613C268.973 164.346 268.575 167.018 267.985 170.161C267.793 171.13 267.602 171.893 267.41 172.863C267.314 173.453 267.181 174.036 267.012 174.61C263.595 175.181 260.149 175.568 256.69 175.77C253.372 175.961 250.792 176.152 248.875 176.152C249.273 173.641 249.657 170.542 250.055 167.062C250.453 163.582 251.22 159.897 251.809 156.226C252.399 152.555 253.166 148.678 253.756 144.993C254.346 141.307 255.127 138.033 255.702 135.125C255.974 133.717 256.171 132.296 256.292 130.867C256.69 128.738 256.882 126.8 257.472 124.48C257.697 123.04 258.023 121.617 258.445 120.222L253.756 120.031C253.947 119.062 254.154 117.711 254.537 116.154C254.921 114.598 255.127 112.865 255.702 111.118C256.277 109.37 256.69 107.447 257.073 105.509C257.457 103.57 258.047 101.838 258.636 100.281C260.008 100.281 261.954 100.09 264.888 100.281C268.153 100.278 271.413 100.538 274.635 101.059C278.787 101.422 282.901 102.134 286.933 103.188C291.491 104.219 295.936 105.695 300.204 107.594C301.336 107.988 302.39 108.58 303.315 109.341C304.363 110.021 305.289 110.869 306.058 111.852C307.03 113.056 307.756 114.438 308.196 115.919C308.648 117.603 308.778 119.356 308.579 121.088ZM275.004 134.435C275.977 134.054 277.157 133.657 278.513 133.084L282.804 130.955C284.169 130.321 285.424 129.474 286.52 128.444C287.42 127.828 288.101 126.944 288.466 125.919C288.673 125.346 288.275 124.759 287.301 124.186C286.702 123.568 285.964 123.1 285.149 122.821C284.574 122.63 283.792 122.439 282.2 121.851C280.607 121.332 278.975 120.944 277.319 120.691C277.319 120.691 277.127 120.882 276.921 122.057C276.729 123.011 276.537 123.981 276.346 125.141C276.154 126.301 275.948 127.079 275.756 128.077C275.636 128.588 275.572 129.11 275.564 129.634C275.358 130.397 275.564 131.102 275.358 131.954C275.346 132.793 275.227 133.626 275.004 134.435Z" fill="white"/>
<path d="M324.96 170.373C322.998 170.764 321.012 171.026 319.015 171.158C316.845 171.543 315.076 171.543 313.069 171.943L307.763 172.52C306.44 172.519 305.12 172.653 303.824 172.92C304.023 172.422 304.095 171.883 304.032 171.351C304.226 170.566 304.419 169.604 304.612 168.819C304.805 167.457 305.207 165.103 305.801 161.979C306.396 158.855 307.169 154.769 307.956 150.476C308.744 146.183 309.532 141.49 310.513 136.812C311.494 132.133 312.297 127.44 313.069 123.339C313.842 119.239 314.452 115.345 315.24 112.221C316.027 109.097 316.414 106.758 316.622 105.781C317.603 105.589 318.985 105.589 320.546 105.204C322.235 104.827 323.949 104.565 325.674 104.419C327.644 104.117 329.628 103.919 331.619 103.827C333.635 103.513 335.674 103.384 337.713 103.442C337.713 103.442 337.907 103.635 337.52 104.419C337.134 105.204 337.52 105.396 337.119 106.166C336.718 106.936 336.926 107.351 336.732 107.928C336.622 108.243 336.557 108.572 336.539 108.905C336.138 110.267 335.558 112.606 334.964 115.537C334.369 118.469 333.581 121.459 332.987 124.716C332.392 127.973 331.813 131.156 331.025 134.073C330.237 136.989 330.044 139.151 329.642 140.72C328.468 146.76 327.874 152.031 327.086 156.724C326.298 161.417 325.748 165.695 324.96 170.373Z" fill="white"/>
<path d="M386.848 152.936C386.851 153.714 386.788 154.49 386.657 155.256C386.596 156.486 386.469 157.711 386.276 158.927C386.311 160.222 386.242 161.519 386.071 162.803C386.104 163.657 385.975 164.509 385.691 165.314C383.757 166.092 381.81 167.061 379.833 167.839C377.856 168.618 376.142 169.19 374.209 169.763C372.276 170.335 370.723 170.732 369.171 171.128C367.619 171.525 366.447 171.701 365.29 172.097C364.909 170.732 364.514 169.381 363.928 167.693C363.342 166.004 363.152 164.213 362.771 162.48C362.39 160.748 362.185 159.382 361.805 157.826C361.424 156.269 361.219 154.346 360.838 152.599C360.689 151.395 360.359 150.222 359.857 149.119C359.421 147.393 358.838 145.708 358.114 144.082C357.356 146.046 356.711 148.051 356.181 150.088C355.595 152.026 355.214 154.155 354.629 156.093C354.629 156.613 354.565 157.131 354.438 157.635C354.248 158.413 354.248 159.176 354.043 160.146C353.838 161.115 353.662 162.275 353.472 163.435C353.281 164.594 353.076 165.564 352.886 166.738C352.695 167.913 352.695 168.471 352.49 169.249C352.285 170.027 352.3 170.6 352.11 170.791C350.367 171.187 348.624 171.378 346.486 171.76C344.666 171.859 342.852 172.055 341.053 172.347C339.31 172.538 337.758 172.538 336.41 172.729C335.063 172.92 333.891 172.92 332.91 172.92C332.934 172.425 333.003 171.934 333.115 171.451L333.686 167.971C333.891 166.606 334.082 165.637 334.272 164.683C334.356 164.09 334.488 163.506 334.668 162.935C334.9 161.449 335.223 159.978 335.634 158.53C336.205 156.401 336.601 154.126 337.186 151.556C337.772 148.987 338.343 146.52 338.929 144.009C339.511 142.05 339.898 140.039 340.086 138.004C340.482 136.271 340.672 134.333 341.258 132.395C341.844 130.457 342.224 128.137 342.415 126.199C342.642 125.235 342.775 124.252 342.81 123.262C343.032 122.298 343.16 121.315 343.191 120.326C343.209 119.538 343.337 118.757 343.572 118.006C343.93 116.473 344.189 114.918 344.348 113.351C344.743 111.619 344.934 110.253 345.124 108.946C345.363 108.13 345.496 107.286 345.519 106.436C346.881 106.039 348.229 105.848 350.177 105.467L355.595 104.307C357.543 103.91 359.476 103.719 361.453 103.338C363.43 102.956 365.334 102.75 367.311 102.559C367.873 104.259 368.265 106.01 368.483 107.786C368.864 110.106 369.449 112.632 369.845 115.524C370.24 118.417 370.811 120.942 371.192 123.468C371.511 125.455 371.966 127.417 372.554 129.341C372.828 127.998 373.024 126.64 373.14 125.274C373.521 123.35 373.711 121.221 374.297 118.887C374.678 117.154 374.883 115.216 375.263 113.278C375.644 111.34 375.849 109.607 376.23 108.051C376.611 106.494 376.816 104.762 377.211 103.646C377.519 102.694 377.711 101.708 377.782 100.709C379.92 100.328 382.63 99.9458 386.32 99.5494C390.036 98.9507 393.79 98.6268 397.553 98.5803C397.363 99.3585 396.982 100.915 396.396 103.426C396.03 105.97 395.512 108.49 394.844 110.973C394.258 113.689 393.687 116.2 393.291 118.52C392.896 120.84 392.515 122.587 392.325 123.365C391.739 126.067 391.358 128.592 390.582 131.294C389.806 133.995 389.41 136.521 388.839 139.428C388.444 141.557 388.253 143.686 387.873 146.006C387.392 148.293 387.049 150.608 386.848 152.936Z" fill="white"/>
<g clip-path="url(#clip1_12653_1082)">
<path d="M108.126 135.285C106.55 125.804 109.448 117.551 110.096 108.197V107.661L109.645 107.887C107.988 108.671 106.155 109.007 104.329 108.861C102.502 108.715 100.745 108.092 99.2332 107.054C97.0241 111.541 93.605 116.507 91.3677 121.388C92.9577 126.735 90.1295 133.578 82.9254 133.578H80.5896C79.1828 133.558 77.7989 133.218 76.5419 132.585C75.285 131.951 74.1879 131.039 73.3331 129.919C72.4784 128.798 71.8883 127.498 71.6074 126.116C71.3264 124.733 71.3619 123.305 71.7111 121.938C72.9774 116.154 76.8891 111.089 79.4781 105.813C83.0684 98.9912 86.2631 91.9677 89.0461 84.7771C91.0582 79.1337 95.0402 78.3154 96.5598 72.3476C95.8563 57.7173 88.2581 19.8787 59.4837 0C59.4837 0 73.1322 26.8058 45.9478 68.7641C35.1415 80.5445 7.9571 73.956 10.532 114.122C6.64854 114.602 0.499675 108.775 0.0775569 103.979C0.0775569 103.979 -4.84716 171.304 63.7893 171.304C87.5264 171.304 105.298 159.072 116.357 141.761C112.516 141.732 108.858 139.602 108.126 135.285Z" fill="url(#paint0_linear_12653_1082)"/>
<path d="M93.685 71.6013C92.9769 73.0144 86.604 78.1721 85.641 79.4863C79.4098 88.0495 83.5734 91.2572 78.0361 100.174C77.1498 106.706 75.916 113.187 74.3398 119.589L75.2887 119.448C85.202 118.035 95.1153 117.159 104.958 115.449C110.252 113.765 115.668 112.495 121.159 111.648C122.496 111.425 123.865 111.478 125.181 111.803C126.503 112.115 127.743 112.702 128.821 113.527C135.293 83.7538 126.838 50.5182 101.148 35.5537C102.564 39.9625 103.91 63.2924 93.685 71.6013Z" fill="#C4C4C4"/>
<path d="M93.685 71.6013C92.9769 73.0144 86.604 78.1721 85.641 79.4863C79.4098 88.0495 83.5734 91.2572 78.0361 100.174C77.1498 106.706 75.916 113.187 74.3398 119.589L75.2887 119.448C85.202 118.035 95.1153 117.159 104.958 115.449C110.252 113.765 115.668 112.495 121.159 111.648C122.496 111.425 123.865 111.478 125.181 111.803C126.503 112.115 127.743 112.702 128.821 113.527C135.293 83.7538 126.838 50.5182 101.148 35.5537C102.564 39.9625 103.91 63.2924 93.685 71.6013Z" fill="url(#paint1_linear_12653_1082)"/>
<path d="M37.128 53.2808C48.8887 43.7744 48.4827 29.0891 48.4827 29.0891C48.4827 30.3873 26.3474 40.7592 25.8854 52.8201C25.4234 64.8811 31.2617 71.107 31.2617 71.107C31.2617 71.107 25.4094 62.7872 37.128 53.2808Z" fill="url(#paint2_linear_12653_1082)"/>
<path fill-rule="evenodd" clip-rule="evenodd" d="M105.147 95.1426C113.283 96.4205 120 94.7774 121.897 59.7947C145.589 109.832 126.857 144.352 93.1603 164.827L94.8747 168.099C95.2402 168.807 95.46 169.581 95.5211 170.374C95.595 171.171 95.5042 171.974 95.2541 172.734C95.0144 173.497 94.6224 174.204 94.1018 174.812C93.5828 175.417 92.9533 175.917 92.2469 176.287L91.1368 176.863C90.4197 177.23 89.636 177.45 88.8323 177.509C88.0354 177.583 87.2318 177.492 86.4715 177.242C85.7034 177.002 84.9913 176.611 84.3777 176.09C83.7979 175.565 83.3213 174.936 82.9725 174.236L80.401 169.293C79.5297 169.49 78.6304 169.686 77.7311 169.855L78.0964 174.307C78.1634 175.103 78.0727 175.905 77.8294 176.666C77.4598 177.817 76.7561 178.832 75.8077 179.582C74.8594 180.332 73.7093 180.784 72.5036 180.879L71.253 180.977C70.4568 181.046 69.6549 180.958 68.893 180.717C68.1311 180.476 67.4241 180.087 66.8125 179.573C66.2012 179.06 65.6994 178.43 65.3371 177.719C64.9715 177.011 64.7472 176.238 64.6766 175.444L64.3253 171.091C62.9201 171.091 61.6694 171.091 60.3907 171.006L60.0253 175.444C59.8813 177.039 59.1138 178.512 57.8894 179.545C56.6583 180.571 55.0748 181.075 53.477 180.949L52.2264 180.837C51.3851 180.799 50.5613 180.584 49.8094 180.205C49.0965 179.839 48.4617 179.339 47.9405 178.73C47.4275 178.117 47.0364 177.412 46.7882 176.652C46.5461 175.895 46.4553 175.098 46.5212 174.307L46.9147 169.546C45.8748 169.349 44.849 169.125 43.8513 168.9L41.7575 172.944C41.0181 174.378 39.7392 175.459 38.2023 175.95C37.437 176.194 36.631 176.285 35.8305 176.217C35.03 176.15 34.2506 175.925 33.537 175.557L32.3988 174.995C31.6889 174.625 31.0587 174.119 30.5439 173.506C30.0237 172.903 29.6317 172.201 29.3916 171.442C29.1474 170.682 29.0564 169.881 29.124 169.085C29.1915 168.29 29.4162 167.516 29.7851 166.807L30.9654 164.532C-4.3617 147.02 0.191213 103.653 0.191213 103.653C0.640882 108.414 12.7117 123.764 16.6041 123.314C15.6064 107.936 18.178 103.035 22.506 102.417C23.1665 101.715 23.9113 101.013 24.5577 100.353C28.7733 96.2239 32.989 92.1794 30.291 84.7643C36.5817 91.9423 42.1762 99.7012 46.999 107.936C47.8785 107.769 48.7331 107.491 49.5424 107.108C44.6382 86.8287 62.3861 61.2833 62.3861 61.2833C67.7119 77.4757 71.9135 89.82 76.8036 96.5048C78.518 92.5726 82.5088 89.0195 86.4575 85.4946C91.5303 80.9866 96.5047 76.5628 96.3923 71.5633C102.617 78.6413 106.847 86.3653 105.147 95.1426Z" fill="#C4C4C4"/>
<path fill-rule="evenodd" clip-rule="evenodd" d="M105.147 95.1426C113.283 96.4205 120 94.7774 121.897 59.7947C145.589 109.832 126.857 144.352 93.1603 164.827L94.8747 168.099C95.2402 168.807 95.46 169.581 95.5211 170.374C95.595 171.171 95.5042 171.974 95.2541 172.734C95.0144 173.497 94.6224 174.204 94.1018 174.812C93.5828 175.417 92.9533 175.917 92.2469 176.287L91.1368 176.863C90.4197 177.23 89.636 177.45 88.8323 177.509C88.0354 177.583 87.2318 177.492 86.4715 177.242C85.7034 177.002 84.9913 176.611 84.3777 176.09C83.7979 175.565 83.3213 174.936 82.9725 174.236L80.401 169.293C79.5297 169.49 78.6304 169.686 77.7311 169.855L78.0964 174.307C78.1634 175.103 78.0727 175.905 77.8294 176.666C77.4598 177.817 76.7561 178.832 75.8077 179.582C74.8594 180.332 73.7093 180.784 72.5036 180.879L71.253 180.977C70.4568 181.046 69.6549 180.958 68.893 180.717C68.1311 180.476 67.4241 180.087 66.8125 179.573C66.2012 179.06 65.6994 178.43 65.3371 177.719C64.9715 177.011 64.7472 176.238 64.6766 175.444L64.3253 171.091C62.9201 171.091 61.6694 171.091 60.3907 171.006L60.0253 175.444C59.8813 177.039 59.1138 178.512 57.8894 179.545C56.6583 180.571 55.0748 181.075 53.477 180.949L52.2264 180.837C51.3851 180.799 50.5613 180.584 49.8094 180.205C49.0965 179.839 48.4617 179.339 47.9405 178.73C47.4275 178.117 47.0364 177.412 46.7882 176.652C46.5461 175.895 46.4553 175.098 46.5212 174.307L46.9147 169.546C45.8748 169.349 44.849 169.125 43.8513 168.9L41.7575 172.944C41.0181 174.378 39.7392 175.459 38.2023 175.95C37.437 176.194 36.631 176.285 35.8305 176.217C35.03 176.15 34.2506 175.925 33.537 175.557L32.3988 174.995C31.6889 174.625 31.0587 174.119 30.5439 173.506C30.0237 172.903 29.6317 172.201 29.3916 171.442C29.1474 170.682 29.0564 169.881 29.124 169.085C29.1915 168.29 29.4162 167.516 29.7851 166.807L30.9654 164.532C-4.3617 147.02 0.191213 103.653 0.191213 103.653C0.640882 108.414 12.7117 123.764 16.6041 123.314C15.6064 107.936 18.178 103.035 22.506 102.417C23.1665 101.715 23.9113 101.013 24.5577 100.353C28.7733 96.2239 32.989 92.1794 30.291 84.7643C36.5817 91.9423 42.1762 99.7012 46.999 107.936C47.8785 107.769 48.7331 107.491 49.5424 107.108C44.6382 86.8287 62.3861 61.2833 62.3861 61.2833C67.7119 77.4757 71.9135 89.82 76.8036 96.5048C78.518 92.5726 82.5088 89.0195 86.4575 85.4946C91.5303 80.9866 96.5047 76.5628 96.3923 71.5633C102.617 78.6413 106.847 86.3653 105.147 95.1426Z" fill="url(#paint3_linear_12653_1082)"/>
<path d="M75.6044 48.1591C80.149 38.7833 76.2024 31.7986 70.143 25.8572C71.6047 34.5519 67.0336 43.7828 66.2762 52.6514C66.0901 54.8396 67.7379 51.3037 69.0667 48.2171C69.2047 47.8316 69.4253 47.4877 69.7101 47.2142C69.9948 46.9406 70.3355 46.7453 70.7035 46.6446C71.0716 46.5439 71.4564 46.5407 71.8259 46.6353C72.1953 46.7298 72.5387 46.9194 72.8272 47.1882C74.3819 48.8837 74.5945 50.2459 75.6044 48.1591Z" fill="#C4C4C4"/>
<path d="M75.6044 48.1591C80.149 38.7833 76.2024 31.7986 70.143 25.8572C71.6047 34.5519 67.0336 43.7828 66.2762 52.6514C66.0901 54.8396 67.7379 51.3037 69.0667 48.2171C69.2047 47.8316 69.4253 47.4877 69.7101 47.2142C69.9948 46.9406 70.3355 46.7453 70.7035 46.6446C71.0716 46.5439 71.4564 46.5407 71.8259 46.6353C72.1953 46.7298 72.5387 46.9194 72.8272 47.1882C74.3819 48.8837 74.5945 50.2459 75.6044 48.1591Z" fill="url(#paint4_linear_12653_1082)"/>
<g opacity="0.9">
<path opacity="0.9" d="M62.3337 139.029L33.9777 126.166C33.7667 126.068 33.5331 126.033 33.3036 126.065C33.0787 126.106 32.8695 126.211 32.6997 126.369C32.5394 126.531 32.4273 126.736 32.3767 126.961C32.3067 127.187 32.3067 127.429 32.3767 127.655C37.9945 143.653 47.9942 146.934 62.2775 141.211C62.4965 141.138 62.6879 140.996 62.8253 140.806C62.9582 140.612 63.0296 140.38 63.0296 140.142C63.0296 139.904 62.9582 139.671 62.8253 139.477C62.7084 139.28 62.5373 139.124 62.3337 139.029Z" fill="white"/>
</g>
<path d="M34.569 125.617C34.4847 125.434 34.3328 125.287 34.1428 125.206L32.3242 124.438C37.8366 141.98 48.5346 145.546 64.12 139.457C64.2768 139.396 64.4107 139.291 64.5036 139.155C64.595 139.02 64.6444 138.863 64.6456 138.702C64.6424 138.546 64.5932 138.394 64.5036 138.263C64.4107 138.127 64.2768 138.022 64.12 137.962L60.4261 136.384C60.2384 136.316 60.0313 136.316 59.8436 136.384C48.35 139.676 39.8683 136.768 34.569 125.617Z" fill="#E93F3A"/>
<g opacity="0.9">
<path opacity="0.9" d="M70.2044 139.029L98.5632 126.167C98.7738 126.068 99.0073 126.033 99.2364 126.066C99.4578 126.104 99.663 126.209 99.8255 126.369C99.993 126.529 100.11 126.737 100.163 126.966C100.215 127.195 100.2 127.435 100.12 127.655C94.51 143.653 84.5241 146.934 70.2606 141.211C70.0419 141.138 69.8508 140.997 69.7136 140.806C69.57 140.616 69.4912 140.383 69.4892 140.142C69.4799 139.901 69.5436 139.664 69.6715 139.462C69.8021 139.265 69.9881 139.114 70.2044 139.029Z" fill="white"/>
</g>
<path d="M97.9517 125.617C98.0392 125.436 98.1901 125.29 98.3779 125.206L100.196 124.438C94.6982 141.98 83.986 145.546 68.4007 139.457C68.2438 139.396 68.1099 139.291 68.0171 139.155C67.9256 139.02 67.8763 138.863 67.875 138.702C67.8782 138.546 67.9275 138.394 68.0171 138.263C68.1099 138.127 68.2438 138.022 68.4007 137.962L72.1087 136.384C72.2915 136.315 72.4943 136.315 72.677 136.384C84.1707 139.676 92.6524 136.768 97.9517 125.617Z" fill="#E93F3A"/>
</g>
</g>
<defs>
<linearGradient id="paint0_linear_12653_1082" x1="48.7478" y1="229.331" x2="64.0675" y2="57.5552" gradientUnits="userSpaceOnUse">
<stop stop-color="#FCEF44"/>
<stop offset="0.04" stop-color="#FDE62A"/>
<stop offset="0.12" stop-color="#FDD519"/>
<stop offset="0.2" stop-color="#FCCB16"/>
<stop offset="0.28" stop-color="#FDC713"/>
<stop offset="0.67" stop-color="#F29140"/>
<stop offset="0.89" stop-color="#ED683C"/>
<stop offset="1" stop-color="#E93F3A"/>
</linearGradient>
<linearGradient id="paint1_linear_12653_1082" x1="106.714" y1="155.425" x2="98.5641" y2="55.2067" gradientUnits="userSpaceOnUse">
<stop stop-color="#FCEF44"/>
<stop offset="0.04" stop-color="#FDE62A"/>
<stop offset="0.12" stop-color="#FDD519"/>
<stop offset="0.2" stop-color="#FCCB16"/>
<stop offset="0.28" stop-color="#FDC713"/>
<stop offset="0.67" stop-color="#F29140"/>
<stop offset="0.89" stop-color="#ED683C"/>
<stop offset="1" stop-color="#E93F3A"/>
</linearGradient>
<linearGradient id="paint2_linear_12653_1082" x1="36.246" y1="77.4445" x2="37.4847" y2="29.4379" gradientUnits="userSpaceOnUse">
<stop stop-color="#FCEF44"/>
<stop offset="0.04" stop-color="#FDE62A"/>
<stop offset="0.12" stop-color="#FDD519"/>
<stop offset="0.2" stop-color="#FCCB16"/>
<stop offset="0.28" stop-color="#FDC713"/>
<stop offset="0.67" stop-color="#F29140"/>
<stop offset="0.89" stop-color="#ED683C"/>
<stop offset="1" stop-color="#E93F3A"/>
</linearGradient>
<linearGradient id="paint3_linear_12653_1082" x1="65.8991" y1="72.9817" x2="67.3167" y2="189.544" gradientUnits="userSpaceOnUse">
<stop stop-color="#FCEF44"/>
<stop offset="0.04" stop-color="#FDE62A"/>
<stop offset="0.12" stop-color="#FDD519"/>
<stop offset="0.2" stop-color="#FCCB16"/>
<stop offset="0.28" stop-color="#FDC713"/>
<stop offset="0.67" stop-color="#F29140"/>
<stop offset="0.89" stop-color="#ED683C"/>
<stop offset="1" stop-color="#E93F3A"/>
</linearGradient>
<linearGradient id="paint4_linear_12653_1082" x1="69.5583" y1="52.8398" x2="94.632" y2="-39.9312" gradientUnits="userSpaceOnUse">
<stop stop-color="#FCEF44"/>
<stop offset="0.04" stop-color="#FDE62A"/>
<stop offset="0.12" stop-color="#FDD519"/>
<stop offset="0.2" stop-color="#FCCB16"/>
<stop offset="0.28" stop-color="#FDC713"/>
<stop offset="0.67" stop-color="#F29140"/>
<stop offset="0.89" stop-color="#ED683C"/>
<stop offset="1" stop-color="#E93F3A"/>
</linearGradient>
<clipPath id="clip0_12653_1082">
<rect width="478.357" height="181" fill="white"/>
</clipPath>
<clipPath id="clip1_12653_1082">
<rect width="132.518" height="181" fill="white"/>
</clipPath>
</defs>
</svg>
