<svg width="42" height="42" viewBox="0 0 42 42" fill="none" xmlns="http://www.w3.org/2000/svg">
<path d="M33.0597 24.3189L21.6972 8.90691C21.351 8.43728 20.649 8.43728 20.3027 8.90691L8.94021 24.3189C8.51857 24.8908 8.92692 25.6992 9.63739 25.6992H32.3625C33.073 25.6992 33.4814 24.8908 33.0597 24.3189Z" fill="#FCC211"/>
<path d="M33.9357 23.674L22.5733 8.26201C22.2066 7.76441 21.6184 7.46729 21.0001 7.46729C20.3819 7.46729 19.7937 7.76433 19.427 8.26201L12.8782 17.1445H10.0772L21.0001 2.32886L32.1838 17.4984C32.5404 17.9822 33.2217 18.0852 33.7056 17.7286C34.1894 17.3719 34.2925 16.6905 33.9357 16.2067L22.5733 0.794717C22.2065 0.297035 21.6183 0 21.0001 0C20.3819 0 19.7936 0.297035 19.4269 0.794717L8.06434 16.2067C7.62424 16.8038 7.55853 17.5859 7.89289 18.248C8.22733 18.9101 8.8958 19.3212 9.63753 19.3212H11.2735L8.06434 23.674C7.62424 24.2711 7.55853 25.0532 7.89289 25.7153C8.22733 26.3773 8.8958 26.7885 9.63753 26.7885H13.3483V39.6399C13.3483 40.9412 14.4071 42 15.7084 42H26.2916C27.593 42 28.6518 40.9412 28.6518 39.6399V32.3551C28.6518 31.0538 27.593 29.995 26.2916 29.995H19.8132C19.2122 29.995 18.7248 30.4823 18.7248 31.0834C18.7248 31.6845 19.2121 32.1718 19.8132 32.1718H26.2916C26.3928 32.1718 26.4751 32.2541 26.4751 32.3552V39.64C26.4751 39.7411 26.3928 39.8234 26.2916 39.8234H15.7084C15.6073 39.8234 15.525 39.7411 15.525 39.64V26.7885H32.3624C33.1042 26.7885 33.7726 26.3772 34.1071 25.7153C34.4416 25.0532 34.3759 24.2711 33.9357 23.674ZM10.0772 24.6118L21.0001 9.79615L31.9228 24.6118H10.0772Z" fill="#FCC211"/>
</svg>
