<svg width="278" height="104" viewBox="0 0 278 104" fill="none" xmlns="http://www.w3.org/2000/svg">
<g clip-path="url(#clip0_12653_1447)">
<path d="M261.094 58.4708L268.742 55.5204L271.958 47.3574L277.06 66.8574L261.094 58.4708Z" fill="white"/>
<path d="M261.111 48.617C248.382 49.7313 254.231 64.7564 247.689 59.9703C241.147 55.1842 249.179 45.6204 244.821 38.7156C242.074 34.3769 229.908 36.2677 219.934 39.9396C216.147 39.3825 227.161 42.4719 227.273 42.607C227.449 42.8938 227.603 43.1928 227.733 43.5017C227.988 43.7365 228.218 43.9968 228.417 44.2783C229.336 45.3925 210.757 49.5118 211.329 50.8455C234.041 50.9552 242.871 38.4962 239.778 53.5129C236.909 67.2044 246.658 69.8717 253.079 66.4193C259.5 62.9669 251.935 53.0739 260.306 51.2929C269.257 49.4021 269.603 56.4082 269.603 56.4082L270.47 55.7413C270.635 55.8342 269.603 49.3852 261.111 48.617Z" fill="white"/>
<path d="M180.93 47.9333C179.105 48.265 177.383 48.4946 175.896 48.7157C174.408 48.9368 172.921 49.0559 171.571 49.277L167.446 49.6172C166.079 49.7277 164.47 49.9488 162.87 50.1785C161.795 50.2343 160.724 50.345 159.661 50.5101C158.632 50.6207 157.067 50.7313 154.965 51.0714L157.828 37.6175C158.174 36.1633 158.407 34.8196 158.632 33.4674C158.857 32.1152 159.203 30.6694 159.436 29.3257C159.767 28.2966 160.032 27.2487 160.232 26.1876C160.578 24.9545 160.812 23.8319 161.037 23.0495L157.828 23.6023C158.174 20.9149 158.632 18.6698 158.978 16.8838C159.203 15.8718 159.436 15.0894 159.549 14.3325C159.693 13.6849 159.883 13.0483 160.12 12.4275C160.353 11.8663 160.466 11.424 160.691 10.9733C161.383 10.8627 162.178 10.6331 163.329 10.412C164.456 10.0765 165.615 9.85146 166.788 9.74016C168.051 9.51055 168.959 9.39999 169.997 9.17888C171.035 8.95777 171.943 8.83871 172.402 8.72815C173.543 8.50703 174.685 8.27742 176.06 8.0563C177.415 7.72511 178.795 7.50046 180.186 7.38446C180.592 7.2674 181.019 7.22985 181.44 7.2739C182.244 7.16334 182.928 7.04428 183.62 6.93372C184.311 6.82317 185.107 6.71261 185.678 6.60205C186.07 6.53814 186.466 6.50402 186.863 6.5V8.40498C186.935 9.30227 186.894 10.2048 186.742 11.0924C186.629 12.1044 186.629 13.2185 186.405 14.4941C186.238 15.7855 185.969 17.0622 185.6 18.3126C184.793 18.3797 183.99 18.4904 183.196 18.6442C181.942 18.7548 180.679 18.9844 179.191 19.2055C177.704 19.4267 176.441 19.6563 175.299 19.8774C174.603 19.9455 173.912 20.0591 173.232 20.2176L172.159 25.2096C173.189 25.0991 174.105 24.8694 174.91 24.7589C175.714 24.6483 176.64 24.5378 177.314 24.4272C177.989 24.3167 178.802 24.1976 179.606 24.087C180.411 23.9765 181.206 23.7554 182.123 23.6363C182.186 24.8336 182.149 26.034 182.011 27.2252C181.878 29.1037 181.647 30.9743 181.319 32.8295C180.86 32.9486 180.29 32.9486 179.589 33.1697C178.888 33.3908 178.326 33.5014 177.634 33.6204C176.942 33.7395 176.38 33.8416 175.688 33.9521C174.996 34.0627 174.659 34.1817 174.201 34.2923C173.742 34.4028 172.946 34.5134 172.03 34.7345C171.162 34.8421 170.314 35.0712 169.513 35.4149C169.473 35.9942 169.357 36.566 169.167 37.1157C169.013 37.5939 168.898 38.0829 168.821 38.5785C169.745 38.5294 170.664 38.4157 171.571 38.2383C172.6 38.0172 173.517 37.9067 174.434 37.677L181.535 36.2228C181.648 36.7825 181.686 37.3543 181.648 37.9237C181.745 38.7705 181.783 39.623 181.76 40.475C181.76 41.4785 181.76 42.6011 181.648 43.8767C181.276 45.2459 181.163 46.5896 180.93 47.9333Z" fill="white"/>
<path d="M209.346 36.0788C209.472 37.6301 209.472 39.1889 209.346 40.7402C209.233 42.8942 209.008 45.0483 208.774 47.323C207.284 47.6677 205.681 47.8917 203.576 48.3483C201.471 48.805 199.564 49.141 197.269 49.5977C194.973 50.0544 192.798 50.2784 190.502 50.6144C188.377 50.93 186.231 51.0827 184.082 51.0711C184.082 50.9591 184.195 50.2784 184.429 49.141C184.663 48.0037 184.888 46.5562 185.226 44.8329C185.564 43.1096 186.031 41.1968 186.378 39.0428C186.725 36.8887 187.175 34.9501 187.634 32.796C188.093 30.6419 188.553 28.8153 188.899 27.0058C189.246 25.1964 189.705 23.8178 189.93 22.6977C190.043 22.129 190.277 21.2157 190.623 19.8543C190.97 18.493 191.308 17.0196 191.654 15.5462C192.001 14.0728 192.451 12.5908 192.798 11.2381C193.144 9.88531 193.491 8.85137 193.604 8.40332C194.327 8.34212 195.055 8.34212 195.778 8.40332C196.736 8.38685 197.693 8.42424 198.646 8.51533C199.723 8.57187 200.796 8.68403 201.86 8.85136C203.004 8.97199 204.035 9.19601 204.841 9.30803C204.728 9.65268 204.494 10.3334 204.156 11.4707C203.818 12.6081 203.576 13.7368 203.117 15.0982C202.657 16.4595 202.432 17.5969 202.086 18.7342C201.739 19.8716 201.514 20.6643 201.401 21.0089C200.708 23.8437 200.136 26.687 199.339 29.6252C198.542 32.5633 198.074 35.4153 197.606 38.2415C198.525 38.1208 199.556 38.0088 200.474 37.8968C201.479 37.7719 202.475 37.5819 203.455 37.3281C203.567 37.2161 203.914 37.2161 204.486 37.1041C205.143 37.0391 205.795 36.9238 206.435 36.7595C207.241 36.6475 207.7 36.5354 208.384 36.4234C208.683 36.2553 209.008 36.1387 209.346 36.0788Z" fill="white"/>
<path d="M236.581 36.0788C236.706 37.6301 236.706 39.1889 236.581 40.7402C236.468 42.8942 236.011 43.2389 235.786 45.505C234.3 45.8496 232.236 46.987 230.18 47.435C228.125 47.8831 226.725 49.1583 224.462 49.5977C222.199 50.0371 220.006 50.2784 217.717 50.6144C215.598 50.93 213.458 51.0827 211.316 51.0711C211.316 50.9591 211.429 50.2784 211.662 49.141C211.895 48.0037 212.12 46.5562 212.457 44.8329C212.793 43.1096 213.26 41.1968 213.605 39.0428C213.951 36.8887 214.4 34.9501 214.858 32.796C215.316 30.6419 215.773 28.8153 216.119 27.0058C216.464 25.1964 216.922 23.8178 217.147 22.6977C217.259 22.129 217.492 21.2157 217.838 19.8543C218.183 18.493 218.52 17.0196 218.865 15.5462C219.211 14.0728 219.66 12.5908 220.006 11.2381C220.351 9.88531 220.688 8.85137 220.809 8.40332C221.53 8.34212 222.255 8.34212 222.977 8.40332C223.931 8.38685 224.886 8.42424 225.836 8.51533C226.909 8.57187 227.979 8.68403 229.04 8.85136C230.18 8.97199 231.208 9.19601 232.012 9.30803C231.899 9.65268 231.666 10.3334 231.329 11.4707C230.992 12.6081 230.75 13.7368 230.293 15.0982C229.835 16.4595 229.61 17.5969 229.265 18.7342C228.919 19.8716 228.695 20.6643 228.582 21.0089C227.892 23.8437 227.321 26.687 226.527 29.6252C225.732 32.5633 225.266 35.4153 224.799 38.2415C225.715 38.1208 226.743 38.0088 227.658 37.8968C228.66 37.7719 229.653 37.5819 230.63 37.3281C230.742 37.2161 231.087 37.2161 231.657 37.1041C232.313 37.0383 232.963 36.9231 233.601 36.7595C234.404 36.6475 234.862 36.5354 235.544 36.4234C235.861 36.2364 236.215 36.1189 236.581 36.0788Z" fill="white"/>
<path d="M110.824 1.85742L125.717 4.97449L127.73 51.0717L113.404 47.6252L110.824 1.85742Z" fill="white"/>
<path d="M122.094 26.1532L138.06 24.1426V35.2854H122.858L122.094 26.1532Z" fill="white"/>
<path d="M140.461 3.57L156.846 0L148.627 51.0714L136.184 50.2255L140.461 3.57Z" fill="white"/>
<path d="M108.008 101.511C108.571 100.174 109.022 98.8361 109.713 97.4986C110.404 96.161 111.069 94.8151 111.632 93.8162C112.268 92.5777 112.98 91.379 113.763 90.2269C115.474 91.0362 117.247 91.7071 119.067 92.2332C121.316 92.7897 123.629 93.0543 125.948 93.0204C126.726 93.0542 127.502 92.9003 128.207 92.5718C128.59 92.4152 128.938 92.185 129.23 91.8944C129.523 91.6038 129.755 91.2586 129.912 90.8787C130.023 90.5486 129.912 90.32 129.23 90.0999C128.548 89.8798 127.994 89.6513 127.09 89.3211C126.186 88.991 125.172 88.7624 124.149 88.5338C123.125 88.3053 122.23 87.9751 121.335 87.755C120.312 87.4164 119.297 86.9762 117.924 86.4175C116.675 85.7655 115.526 84.9388 114.514 83.9626C113.547 82.9203 112.784 81.709 112.263 80.3903C111.724 78.7316 111.645 76.9599 112.032 75.2603C112.377 72.7731 113.306 70.401 114.744 68.3358C116.028 66.2808 117.582 64.4048 119.365 62.7572C120.401 61.6803 121.543 60.7103 122.776 59.862C124.062 58.8734 125.425 57.9874 126.851 57.2124C128.318 56.4336 129.674 55.7649 131.029 55.2062C132.198 54.6255 133.458 54.2475 134.756 54.0887C135.568 53.9011 136.403 53.8271 137.237 53.8686C138.183 53.828 139.131 53.9019 140.059 54.0887C140.917 54.237 141.729 54.5819 142.429 55.0961C142.819 55.3019 143.161 55.5868 143.433 55.9325C143.705 56.2782 143.9 56.6768 144.007 57.1024C144.708 59.2286 144.826 61.5019 144.348 63.6883C144.237 64.4671 144.118 65.1359 143.896 66.2279C143.674 67.3199 143.555 68.1241 143.222 69.2415C142.89 70.359 142.77 71.1378 142.54 72.0266C142.385 72.8053 142.118 73.5579 141.747 74.2614C140.701 74.3935 139.647 74.4669 138.592 74.4815H135.54C134.632 74.5139 133.724 74.4856 132.82 74.3969C132.185 74.2879 131.545 74.2144 130.902 74.1768C131.093 73.6672 131.244 73.1436 131.353 72.6107C131.553 71.8792 131.704 71.1355 131.805 70.3843C131.963 69.5729 132.074 68.7533 132.138 67.9294C132.257 67.1422 132.368 66.702 132.257 66.4734C132.146 66.2448 131.916 66.1433 131.012 66.5835C130.08 67.1249 129.208 67.7634 128.412 68.4881C127.559 69.377 126.613 70.2658 125.709 71.2732C125.027 72.0388 124.542 72.9565 124.293 73.9482C124.193 74.4028 124.212 74.8754 124.349 75.3204C124.487 75.7653 124.738 76.1675 125.078 76.4878C125.742 76.9813 126.463 77.3935 127.227 77.7153C128.07 77.9207 128.899 78.1809 129.708 78.4941C130.612 78.7142 131.413 78.8242 132.266 79.0528C133.145 79.1582 134.006 79.3832 134.824 79.7215C135.949 80.0517 137.083 80.3903 138.234 80.8389C139.46 81.2629 140.472 82.1432 141.057 83.2939C141.427 83.9163 141.695 84.5936 141.85 85.3001C141.952 85.9267 141.99 86.5622 141.96 87.1963C141.936 87.8336 141.859 88.4678 141.73 89.0926C141.622 89.7641 141.511 90.3285 141.398 90.7856C140.332 93.6903 138.681 96.3489 136.546 98.599C134.269 100.841 131.418 102.422 128.301 103.17C127.517 103.399 126.724 103.509 125.598 103.729C124.622 103.857 123.64 103.93 122.656 103.949C120.244 104.077 117.825 103.966 115.434 103.619C113.968 103.399 112.876 103.17 111.708 102.95C110.446 102.547 109.21 102.066 108.008 101.511Z" fill="white"/>
<path d="M179.334 69.5753C179.209 70.9175 178.865 72.2309 178.314 73.4648C177.817 74.7692 177.085 75.9752 176.155 77.0252C174.314 78.9352 172.307 80.6827 170.156 82.2477C167.981 83.7947 165.663 85.1365 163.232 86.2553C161.304 87.2593 159.376 88.0355 157.559 88.7864C157.57 89.0496 157.532 89.3126 157.448 89.5626C157.292 89.9985 157.177 90.4475 157.105 90.9041C156.968 91.7582 156.779 92.6034 156.54 93.4352C156.317 94.4308 156.085 95.9663 155.743 97.7718C155.631 98.3287 155.52 98.7674 155.408 99.3243C155.353 99.6634 155.276 99.9987 155.177 100.328C153.191 100.656 151.189 100.879 149.178 100.995C147.25 101.104 145.751 101.214 144.637 101.214C144.868 99.7714 145.091 97.9912 145.322 95.9916C145.554 93.9921 145.999 91.8744 146.342 89.7651C146.685 87.6559 147.13 85.4285 147.473 83.3108C147.816 81.1931 148.27 79.3116 148.604 77.6411C148.762 76.832 148.877 76.0153 148.947 75.1944C149.178 73.971 149.29 72.8573 149.633 71.5243C149.764 70.6969 149.953 69.8793 150.198 69.0775L147.473 68.9678C147.585 68.411 147.705 67.6348 147.927 66.7405C148.15 65.8461 148.27 64.8506 148.604 63.8466C148.939 62.8426 149.178 61.7373 149.401 60.6236C149.624 59.5099 149.967 58.5144 150.31 57.62C151.107 57.62 152.238 57.5104 153.943 57.62C155.84 57.6183 157.735 57.7678 159.607 58.0672C162.02 58.2755 164.411 58.6848 166.754 59.2906C169.403 59.8828 171.987 60.7306 174.467 61.8217C175.125 62.0483 175.737 62.3882 176.275 62.8257C176.884 63.2163 177.422 63.7039 177.869 64.2684C178.434 64.9602 178.856 65.7541 179.111 66.6055C179.374 67.5728 179.45 68.5804 179.334 69.5753ZM159.822 77.2446C160.387 77.0252 161.073 76.7974 161.861 76.4683L164.355 75.245C165.148 74.8806 165.877 74.3936 166.514 73.8023C167.037 73.4482 167.433 72.9402 167.645 72.3511C167.765 72.022 167.534 71.6846 166.968 71.3555C166.62 71.0005 166.191 70.7316 165.717 70.5709C165.383 70.4612 164.929 70.3515 164.003 70.014C163.078 69.7154 162.13 69.4925 161.167 69.3475C161.167 69.3475 161.056 69.4572 160.936 70.1321C160.824 70.6806 160.713 71.2374 160.601 71.9039C160.49 72.5705 160.37 73.0176 160.259 73.5913C160.189 73.8847 160.152 74.1845 160.147 74.4857C160.027 74.9244 160.147 75.3294 160.027 75.8187C160.02 76.3006 159.951 76.7798 159.822 77.2446Z" fill="white"/>
<path d="M188.85 97.8942C187.709 98.1185 186.555 98.2691 185.395 98.345C184.133 98.5662 183.105 98.5662 181.939 98.7959L178.856 99.1276C178.087 99.1268 177.319 99.2037 176.566 99.3573C176.682 99.0713 176.724 98.7614 176.687 98.4556C176.8 98.0048 176.912 97.4518 177.024 97.001C177.137 96.2184 177.37 94.8659 177.715 93.071C178.061 91.2761 178.51 88.9283 178.968 86.4615C179.426 83.9946 179.883 81.298 180.454 78.61C181.024 75.922 181.49 73.2254 181.939 70.8691C182.388 68.5128 182.743 66.2756 183.2 64.4808C183.658 62.6859 183.883 61.3419 184.004 60.7804C184.574 60.6699 185.377 60.6699 186.284 60.4487C187.266 60.2321 188.262 60.0814 189.264 59.9978C190.409 59.8242 191.563 59.7107 192.72 59.6576C193.891 59.4773 195.076 59.4032 196.261 59.4364C196.261 59.4364 196.374 59.547 196.149 59.9978C195.924 60.4487 196.149 60.5593 195.916 61.0016C195.683 61.4439 195.803 61.6821 195.691 62.0139C195.627 62.1948 195.589 62.3839 195.579 62.5753C195.346 63.3579 195.009 64.7019 194.663 66.3862C194.318 68.0705 193.86 69.7888 193.514 71.6602C193.169 73.5316 192.832 75.3605 192.374 77.0363C191.916 78.7121 191.804 79.954 191.571 80.8557C190.888 84.3263 190.543 87.3547 190.085 90.0512C189.627 92.7478 189.308 95.2061 188.85 97.8942Z" fill="white"/>
<path d="M224.819 87.8747C224.821 88.3214 224.784 88.7674 224.708 89.2077C224.673 89.9142 224.599 90.6182 224.487 91.3168C224.507 92.0612 224.467 92.806 224.368 93.5441C224.387 94.0345 224.311 94.524 224.146 94.9867C223.023 95.4339 221.891 95.9907 220.742 96.4378C219.593 96.885 218.597 97.214 217.474 97.543C216.35 97.872 215.448 98.0998 214.546 98.3276C213.644 98.5554 212.963 98.6566 212.29 98.8844C212.069 98.0998 211.839 97.3237 211.499 96.3535C211.159 95.3832 211.048 94.354 210.827 93.3585C210.605 92.363 210.486 91.5784 210.265 90.6841C210.044 89.7898 209.924 88.6846 209.703 87.6807C209.617 86.9893 209.424 86.3151 209.133 85.6812C208.879 84.6897 208.541 83.7216 208.12 82.7875C207.68 83.9155 207.305 85.0676 206.997 86.238C206.656 87.3516 206.435 88.575 206.094 89.6886C206.095 89.9873 206.057 90.2848 205.984 90.5744C205.873 91.0215 205.873 91.4603 205.754 92.0171C205.635 92.5739 205.533 93.2404 205.422 93.9069C205.311 94.5733 205.192 95.1302 205.082 95.8051C204.971 96.48 204.971 96.8006 204.852 97.2477C204.733 97.6949 204.741 98.0239 204.631 98.1336C203.618 98.3614 202.605 98.471 201.362 98.6904C200.305 98.7473 199.251 98.86 198.205 99.0278C197.192 99.1375 196.29 99.1375 195.507 99.2472C194.724 99.3569 194.043 99.3569 193.473 99.3569C193.487 99.0727 193.527 98.7903 193.592 98.5132L193.924 96.5137C194.043 95.7291 194.154 95.1723 194.264 94.624C194.313 94.2836 194.39 93.9479 194.494 93.62C194.629 92.7658 194.817 91.9206 195.056 91.089C195.388 89.8657 195.617 88.5581 195.958 87.0817C196.298 85.6053 196.63 84.1879 196.971 82.7453C197.309 81.6198 197.534 80.464 197.643 79.2947C197.873 78.2992 197.983 77.1856 198.324 76.072C198.664 74.9584 198.886 73.6254 198.996 72.5118C199.129 71.9582 199.206 71.393 199.226 70.8244C199.355 70.2705 199.429 69.7054 199.447 69.1371C199.458 68.6847 199.532 68.236 199.669 67.8042C199.877 66.9232 200.027 66.0299 200.12 65.1298C200.35 64.1343 200.46 63.3497 200.571 62.5988C200.709 62.1297 200.787 61.6448 200.801 61.1561C201.592 60.9284 202.375 60.8187 203.507 60.5993L206.656 59.9328C207.788 59.7051 208.912 59.5954 210.061 59.376C211.21 59.1567 212.316 59.0386 213.465 58.9289C213.791 59.9053 214.019 60.9113 214.146 61.9323C214.367 63.2653 214.708 64.7164 214.937 66.3784C215.167 68.0404 215.499 69.4915 215.72 70.9426C215.905 72.0842 216.17 73.2117 216.512 74.3172C216.671 73.5455 216.785 72.7651 216.852 71.9802C217.074 70.8751 217.184 69.6517 217.525 68.3103C217.746 67.3148 217.865 66.2012 218.086 65.0876C218.308 63.974 218.427 62.9784 218.648 62.0842C218.869 61.1899 218.989 60.1944 219.218 59.5532C219.398 59.0061 219.509 58.4396 219.55 57.8659C220.793 57.6465 222.368 57.4272 224.512 57.1994C226.672 56.8554 228.853 56.6693 231.04 56.6426C230.93 57.0897 230.708 57.984 230.368 59.4266C230.155 60.8887 229.854 62.3368 229.466 63.763C229.125 65.3238 228.793 66.7664 228.564 68.0994C228.334 69.4324 228.112 70.4364 228.002 70.8835C227.661 72.4358 227.44 73.8869 226.989 75.4392C226.538 76.9916 226.308 78.4426 225.976 80.1131C225.746 81.3364 225.636 82.5597 225.414 83.8927C225.135 85.2069 224.936 86.5367 224.819 87.8747Z" fill="white"/>
<g clip-path="url(#clip1_12653_1447)">
<path d="M62.838 77.7328C61.9221 72.2853 63.6066 67.543 63.9828 62.1684V61.8604L63.7211 61.9901C62.7581 62.4409 61.6928 62.634 60.6312 62.5501C59.5696 62.4662 58.5487 62.1082 57.6699 61.5118C56.3861 64.0896 54.3991 66.9431 53.0989 69.7479C54.0229 72.8203 52.3793 76.7519 48.1925 76.7519H46.8351C46.0176 76.7405 45.2133 76.5453 44.4828 76.1812C43.7523 75.817 43.1147 75.2932 42.618 74.6494C42.1212 74.0056 41.7783 73.2584 41.615 72.4642C41.4518 71.6699 41.4724 70.8493 41.6753 70.0641C42.4113 66.7404 44.6845 63.8302 46.1891 60.7984C48.2757 56.8789 50.1323 52.8433 51.7496 48.7117C52.919 45.4691 55.2331 44.9989 56.1163 41.5699C55.7074 33.1635 51.2917 11.422 34.5693 0C34.5693 0 42.5012 15.4023 26.7028 39.5109C20.4227 46.2797 4.62432 42.494 6.12075 65.5731C3.86383 65.8487 0.290389 62.5008 0.0450726 59.7446C0.0450726 59.7446 -2.81696 98.4286 37.0715 98.4286C50.8665 98.4286 61.1943 91.4003 67.6216 81.4537C65.3892 81.4374 63.2632 80.2134 62.838 77.7328Z" fill="url(#paint0_linear_12653_1447)"/>
<path d="M54.4457 41.1411C54.0342 41.9531 50.3305 44.9166 49.7709 45.6717C46.1496 50.5921 48.5693 52.4351 45.3512 57.5584C44.8362 61.312 44.1191 65.036 43.2031 68.7144L43.7546 68.6332C49.5157 67.8213 55.2769 67.3179 60.997 66.3355C64.0734 65.3681 67.2213 64.6378 70.4124 64.1513C71.1895 64.0231 71.985 64.0535 72.7498 64.2407C73.5179 64.4196 74.2388 64.7572 74.865 65.2312C78.6262 48.1238 73.7127 29.0271 58.783 20.4287C59.606 22.9619 60.3879 36.367 54.4457 41.1411Z" fill="#C4C4C4"/>
<path d="M54.4457 41.1411C54.0342 41.9531 50.3305 44.9166 49.7709 45.6717C46.1496 50.5921 48.5693 52.4351 45.3512 57.5584C44.8362 61.312 44.1191 65.036 43.2031 68.7144L43.7546 68.6332C49.5157 67.8213 55.2769 67.3179 60.997 66.3355C64.0734 65.3681 67.2213 64.6378 70.4124 64.1513C71.1895 64.0231 71.985 64.0535 72.7498 64.2407C73.5179 64.4196 74.2388 64.7572 74.865 65.2312C78.6262 48.1238 73.7127 29.0271 58.783 20.4287C59.606 22.9619 60.3879 36.367 54.4457 41.1411Z" fill="url(#paint1_linear_12653_1447)"/>
<path d="M21.5762 30.6141C28.411 25.1518 28.175 16.7139 28.175 16.7139C28.175 17.4598 15.311 23.4193 15.0425 30.3494C14.774 37.2794 18.1669 40.8567 18.1669 40.8567C18.1669 40.8567 14.7658 36.0763 21.5762 30.6141Z" fill="url(#paint2_linear_12653_1447)"/>
<path fill-rule="evenodd" clip-rule="evenodd" d="M61.1067 54.6678C65.8351 55.4021 69.7387 54.458 70.8411 34.3574C84.6099 63.1083 73.7239 82.9426 54.1407 94.7076L55.137 96.5878C55.3494 96.9943 55.4771 97.4388 55.5126 97.895C55.5556 98.3526 55.5028 98.814 55.3575 99.2506C55.2181 99.6893 54.9903 100.096 54.6878 100.445C54.3862 100.792 54.0203 101.08 53.6098 101.292L52.9647 101.623C52.5479 101.834 52.0925 101.96 51.6254 101.994C51.1623 102.037 50.6952 101.984 50.2534 101.841C49.807 101.703 49.3932 101.478 49.0366 101.179C48.6996 100.877 48.4227 100.516 48.22 100.114L46.7255 97.2736C46.2192 97.3866 45.6965 97.4996 45.1738 97.5964L45.3862 100.154C45.4251 100.612 45.3724 101.073 45.231 101.51C45.0162 102.171 44.6072 102.755 44.0561 103.186C43.505 103.617 42.8366 103.876 42.1359 103.931L41.4091 103.987C40.9464 104.027 40.4803 103.976 40.0376 103.837C39.5948 103.699 39.1839 103.476 38.8285 103.18C38.4732 102.886 38.1816 102.524 37.971 102.115C37.7585 101.708 37.6282 101.264 37.5872 100.808L37.383 98.3065C36.5664 98.3065 35.8395 98.3065 35.0964 98.2581L34.8841 100.808C34.8004 101.724 34.3543 102.571 33.6428 103.164C32.9273 103.754 32.0071 104.043 31.0785 103.971L30.3517 103.907C29.8627 103.885 29.384 103.761 28.947 103.543C28.5327 103.333 28.1638 103.046 27.8609 102.696C27.5627 102.344 27.3355 101.939 27.1912 101.502C27.0505 101.067 26.9978 100.609 27.0361 100.154L27.2647 97.4189C26.6604 97.3059 26.0642 97.1768 25.4844 97.0477L24.2676 99.3717C23.8379 100.195 23.0947 100.816 22.2015 101.098C21.7567 101.239 21.2883 101.291 20.8231 101.252C20.3579 101.213 19.9049 101.084 19.4902 100.873L18.8287 100.55C18.4162 100.337 18.0499 100.047 17.7508 99.6944C17.4484 99.348 17.2206 98.9444 17.0811 98.5082C16.9392 98.0715 16.8863 97.6112 16.9256 97.1542C16.9648 96.6971 17.0954 96.2523 17.3098 95.8454L17.9957 94.5381C-2.53482 84.4757 0.111124 59.5578 0.111124 59.5578C0.372452 62.2933 7.38747 71.113 9.64959 70.8548C9.06977 62.0189 10.5642 59.2028 13.0795 58.8477C13.4633 58.4442 13.8962 58.0408 14.2718 57.6615C16.7218 55.2892 19.1717 52.9652 17.6038 48.7046C21.2597 52.829 24.5109 57.2871 27.3137 62.0189C27.8249 61.9227 28.3215 61.7628 28.7919 61.5428C25.9417 49.8908 36.256 35.2128 36.256 35.2128C39.3511 44.5167 41.7929 51.6096 44.6349 55.4505C45.6312 53.1911 47.9505 51.1496 50.2452 49.1242C53.1933 46.534 56.0843 43.9922 56.0189 41.1195C59.6367 45.1864 62.0948 49.6245 61.1067 54.6678Z" fill="#C4C4C4"/>
<path fill-rule="evenodd" clip-rule="evenodd" d="M61.1067 54.6678C65.8351 55.4021 69.7387 54.458 70.8411 34.3574C84.6099 63.1083 73.7239 82.9426 54.1407 94.7076L55.137 96.5878C55.3494 96.9943 55.4771 97.4388 55.5126 97.895C55.5556 98.3526 55.5028 98.814 55.3575 99.2506C55.2181 99.6893 54.9903 100.096 54.6878 100.445C54.3862 100.792 54.0203 101.08 53.6098 101.292L52.9647 101.623C52.5479 101.834 52.0925 101.96 51.6254 101.994C51.1623 102.037 50.6952 101.984 50.2534 101.841C49.807 101.703 49.3932 101.478 49.0366 101.179C48.6996 100.877 48.4227 100.516 48.22 100.114L46.7255 97.2736C46.2192 97.3866 45.6965 97.4996 45.1738 97.5964L45.3862 100.154C45.4251 100.612 45.3724 101.073 45.231 101.51C45.0162 102.171 44.6072 102.755 44.0561 103.186C43.505 103.617 42.8366 103.876 42.1359 103.931L41.4091 103.987C40.9464 104.027 40.4803 103.976 40.0376 103.837C39.5948 103.699 39.1839 103.476 38.8285 103.18C38.4732 102.886 38.1816 102.524 37.971 102.115C37.7585 101.708 37.6282 101.264 37.5872 100.808L37.383 98.3065C36.5664 98.3065 35.8395 98.3065 35.0964 98.2581L34.8841 100.808C34.8004 101.724 34.3543 102.571 33.6428 103.164C32.9273 103.754 32.0071 104.043 31.0785 103.971L30.3517 103.907C29.8627 103.885 29.384 103.761 28.947 103.543C28.5327 103.333 28.1638 103.046 27.8609 102.696C27.5627 102.344 27.3355 101.939 27.1912 101.502C27.0505 101.067 26.9978 100.609 27.0361 100.154L27.2647 97.4189C26.6604 97.3059 26.0642 97.1768 25.4844 97.0477L24.2676 99.3717C23.8379 100.195 23.0947 100.816 22.2015 101.098C21.7567 101.239 21.2883 101.291 20.8231 101.252C20.3579 101.213 19.9049 101.084 19.4902 100.873L18.8287 100.55C18.4162 100.337 18.0499 100.047 17.7508 99.6944C17.4484 99.348 17.2206 98.9444 17.0811 98.5082C16.9392 98.0715 16.8863 97.6112 16.9256 97.1542C16.9648 96.6971 17.0954 96.2523 17.3098 95.8454L17.9957 94.5381C-2.53482 84.4757 0.111124 59.5578 0.111124 59.5578C0.372452 62.2933 7.38747 71.113 9.64959 70.8548C9.06977 62.0189 10.5642 59.2028 13.0795 58.8477C13.4633 58.4442 13.8962 58.0408 14.2718 57.6615C16.7218 55.2892 19.1717 52.9652 17.6038 48.7046C21.2597 52.829 24.5109 57.2871 27.3137 62.0189C27.8249 61.9227 28.3215 61.7628 28.7919 61.5428C25.9417 49.8908 36.256 35.2128 36.256 35.2128C39.3511 44.5167 41.7929 51.6096 44.6349 55.4505C45.6312 53.1911 47.9505 51.1496 50.2452 49.1242C53.1933 46.534 56.0843 43.9922 56.0189 41.1195C59.6367 45.1864 62.0948 49.6245 61.1067 54.6678Z" fill="url(#paint3_linear_12653_1447)"/>
<path d="M43.9374 27.6718C46.5785 22.2846 44.2849 18.2713 40.7634 14.8574C41.6129 19.8533 38.9564 25.1572 38.5162 30.253C38.4081 31.5103 39.3657 29.4786 40.1379 27.7051C40.2181 27.4836 40.3463 27.286 40.5118 27.1288C40.6773 26.9717 40.8753 26.8594 41.0892 26.8016C41.3031 26.7437 41.5268 26.7419 41.7415 26.7962C41.9562 26.8506 42.1557 26.9595 42.3234 27.1139C43.2269 28.0881 43.3505 28.8708 43.9374 27.6718Z" fill="#C4C4C4"/>
<path d="M43.9374 27.6718C46.5785 22.2846 44.2849 18.2713 40.7634 14.8574C41.6129 19.8533 38.9564 25.1572 38.5162 30.253C38.4081 31.5103 39.3657 29.4786 40.1379 27.7051C40.2181 27.4836 40.3463 27.286 40.5118 27.1288C40.6773 26.9717 40.8753 26.8594 41.0892 26.8016C41.3031 26.7437 41.5268 26.7419 41.7415 26.7962C41.9562 26.8506 42.1557 26.9595 42.3234 27.1139C43.2269 28.0881 43.3505 28.8708 43.9374 27.6718Z" fill="url(#paint4_linear_12653_1447)"/>
<g opacity="0.9">
<path opacity="0.9" d="M36.2253 79.884L19.7461 72.4934C19.6234 72.4371 19.4877 72.417 19.3543 72.4353C19.2236 72.4589 19.102 72.5193 19.0034 72.6097C18.9102 72.7027 18.8451 72.8208 18.8156 72.9501C18.775 73.0798 18.775 73.2191 18.8156 73.3487C22.0805 82.5413 27.8919 84.4263 36.1927 81.1379C36.3199 81.0959 36.4312 81.0146 36.511 80.9054C36.5883 80.7935 36.6298 80.6601 36.6298 80.5234C36.6298 80.3867 36.5883 80.2533 36.511 80.1414C36.4431 80.0286 36.3436 79.9389 36.2253 79.884Z" fill="white"/>
</g>
<path d="M20.0897 72.1778C20.0407 72.0724 19.9524 71.9881 19.842 71.9413L18.7852 71.5C21.9887 81.5799 28.2059 83.6289 37.2634 80.1297C37.3546 80.0951 37.4324 80.0346 37.4864 79.9564C37.5395 79.879 37.5682 79.7888 37.5689 79.6963C37.5671 79.6064 37.5384 79.519 37.4864 79.4441C37.4324 79.3659 37.3546 79.3053 37.2634 79.2707L35.1167 78.3644C35.0077 78.3251 34.8873 78.3251 34.7782 78.3644C28.0986 80.2558 23.1694 78.5851 20.0897 72.1778Z" fill="#E93F3A"/>
<g opacity="0.9">
<path opacity="0.9" d="M40.8029 79.8841L57.2838 72.4937C57.4062 72.4369 57.5419 72.4167 57.675 72.4356C57.8037 72.4575 57.9229 72.5182 58.0174 72.6099C58.1147 72.7019 58.183 72.8213 58.2135 72.9529C58.2439 73.0845 58.2353 73.2224 58.1885 73.349C54.9282 82.5413 49.1249 84.4262 40.8355 81.1379C40.7085 81.0959 40.5974 81.0146 40.5177 80.9054C40.4342 80.7961 40.3884 80.6619 40.3872 80.5234C40.3818 80.3853 40.4189 80.2488 40.4932 80.1332C40.5691 80.0199 40.6772 79.933 40.8029 79.8841Z" fill="white"/>
</g>
<path d="M56.9245 72.1778C56.9754 72.0736 57.0631 71.9899 57.1723 71.9413L58.2291 71.5C55.0338 81.5799 48.8083 83.6289 39.7508 80.1297C39.6596 80.0951 39.5818 80.0346 39.5279 79.9564C39.4747 79.879 39.4461 79.7888 39.4453 79.6963C39.4472 79.6064 39.4758 79.519 39.5279 79.4441C39.5818 79.3659 39.6596 79.3053 39.7508 79.2707L41.9058 78.3644C42.012 78.3248 42.1299 78.3248 42.236 78.3644C48.9156 80.2558 53.8448 78.5851 56.9245 72.1778Z" fill="#E93F3A"/>
</g>
</g>
<defs>
<linearGradient id="paint0_linear_12653_1447" x1="28.3301" y1="131.77" x2="37.0346" y2="33.0529" gradientUnits="userSpaceOnUse">
<stop stop-color="#FCEF44"/>
<stop offset="0.04" stop-color="#FDE62A"/>
<stop offset="0.12" stop-color="#FDD519"/>
<stop offset="0.2" stop-color="#FCCB16"/>
<stop offset="0.28" stop-color="#FDC713"/>
<stop offset="0.67" stop-color="#F29140"/>
<stop offset="0.89" stop-color="#ED683C"/>
<stop offset="1" stop-color="#E93F3A"/>
</linearGradient>
<linearGradient id="paint1_linear_12653_1447" x1="62.0175" y1="89.3051" x2="57.387" y2="31.7125" gradientUnits="userSpaceOnUse">
<stop stop-color="#FCEF44"/>
<stop offset="0.04" stop-color="#FDE62A"/>
<stop offset="0.12" stop-color="#FDD519"/>
<stop offset="0.2" stop-color="#FCCB16"/>
<stop offset="0.28" stop-color="#FDC713"/>
<stop offset="0.67" stop-color="#F29140"/>
<stop offset="0.89" stop-color="#ED683C"/>
<stop offset="1" stop-color="#E93F3A"/>
</linearGradient>
<linearGradient id="paint2_linear_12653_1447" x1="21.0636" y1="44.4982" x2="21.7673" y2="16.9139" gradientUnits="userSpaceOnUse">
<stop stop-color="#FCEF44"/>
<stop offset="0.04" stop-color="#FDE62A"/>
<stop offset="0.12" stop-color="#FDD519"/>
<stop offset="0.2" stop-color="#FCCB16"/>
<stop offset="0.28" stop-color="#FDC713"/>
<stop offset="0.67" stop-color="#F29140"/>
<stop offset="0.89" stop-color="#ED683C"/>
<stop offset="1" stop-color="#E93F3A"/>
</linearGradient>
<linearGradient id="paint3_linear_12653_1447" x1="38.2977" y1="41.9345" x2="39.103" y2="108.91" gradientUnits="userSpaceOnUse">
<stop stop-color="#FCEF44"/>
<stop offset="0.04" stop-color="#FDE62A"/>
<stop offset="0.12" stop-color="#FDD519"/>
<stop offset="0.2" stop-color="#FCCB16"/>
<stop offset="0.28" stop-color="#FDC713"/>
<stop offset="0.67" stop-color="#F29140"/>
<stop offset="0.89" stop-color="#ED683C"/>
<stop offset="1" stop-color="#E93F3A"/>
</linearGradient>
<linearGradient id="paint4_linear_12653_1447" x1="40.4237" y1="30.3613" x2="54.6896" y2="-23.0253" gradientUnits="userSpaceOnUse">
<stop stop-color="#FCEF44"/>
<stop offset="0.04" stop-color="#FDE62A"/>
<stop offset="0.12" stop-color="#FDD519"/>
<stop offset="0.2" stop-color="#FCCB16"/>
<stop offset="0.28" stop-color="#FDC713"/>
<stop offset="0.67" stop-color="#F29140"/>
<stop offset="0.89" stop-color="#ED683C"/>
<stop offset="1" stop-color="#E93F3A"/>
</linearGradient>
<clipPath id="clip0_12653_1447">
<rect width="278" height="104" fill="white"/>
</clipPath>
<clipPath id="clip1_12653_1447">
<rect width="77.0135" height="104" fill="white"/>
</clipPath>
</defs>
</svg>
