<svg width="130" height="50" viewBox="0 0 130 50" fill="none" xmlns="http://www.w3.org/2000/svg">
<g clip-path="url(#clip0_323_2425)">
<path d="M116.934 28.1554L120.675 26.7497L122.249 22.8604L124.745 32.1513L116.934 28.1554Z" fill="white"/>
<path d="M116.553 23.2376C110.533 23.7786 113.299 31.0737 110.205 28.7499C107.111 26.4261 110.91 21.7827 108.848 18.4302C107.549 16.3237 101.795 17.2417 97.078 19.0245C95.287 18.754 100.496 20.254 100.549 20.3196C100.632 20.4588 100.705 20.604 100.767 20.754C100.887 20.868 100.996 20.9944 101.09 21.1311C101.525 21.672 92.7378 23.672 93.0083 24.3196C103.75 24.3729 107.926 18.3237 106.463 25.6147C105.107 32.2622 109.717 33.5573 112.754 31.8811C115.791 30.2048 112.213 25.4016 116.172 24.5368C120.406 23.6188 120.57 27.0204 120.57 27.0204L120.98 26.6966C121.058 26.7417 120.57 23.6106 116.553 23.2376Z" fill="white"/>
<path d="M78.6841 23.1225C77.8194 23.2823 77.0038 23.393 76.2989 23.4995C75.594 23.6061 74.8891 23.6635 74.2497 23.77L72.2948 23.934C71.6473 23.9872 70.885 24.0938 70.1268 24.2045C69.6175 24.2313 69.11 24.2847 68.6063 24.3643C68.1186 24.4176 67.3768 24.4708 66.3809 24.6348L67.7374 18.1512C67.9014 17.4504 68.012 16.8028 68.1186 16.1512C68.2251 15.4995 68.3891 14.8028 68.4997 14.1553C68.6561 13.6593 68.7821 13.1543 68.8768 12.643C69.0407 12.0487 69.1513 11.5077 69.2579 11.1307L67.7374 11.3971C67.9014 10.102 68.1186 9.02003 68.2825 8.15937C68.3891 7.67167 68.4997 7.29462 68.553 6.92986C68.621 6.61777 68.7114 6.31097 68.8235 6.01183C68.9341 5.74134 68.9874 5.52822 69.094 5.31101C69.4218 5.25773 69.7989 5.14708 70.344 5.04052C70.8784 4.87883 71.4275 4.77038 71.9833 4.71675C72.5817 4.60609 73.012 4.55281 73.5038 4.44626C73.9956 4.3397 74.4259 4.28232 74.6432 4.22905C75.1841 4.12249 75.7251 4.01183 76.3768 3.90527C77.0188 3.74567 77.6725 3.63741 78.3317 3.5815C78.5244 3.52509 78.7263 3.507 78.9259 3.52823C79.3071 3.47495 79.6309 3.41757 79.9587 3.36429C80.2866 3.31101 80.6636 3.25773 80.9341 3.20445C81.1198 3.17365 81.3075 3.15721 81.4956 3.15527V4.07331C81.5296 4.50572 81.5103 4.94067 81.4382 5.36839C81.385 5.85609 81.385 6.39298 81.2784 7.00773C81.1994 7.63009 81.0719 8.24534 80.8972 8.8479C80.5148 8.88023 80.1345 8.93359 79.7579 9.00773C79.1636 9.06101 78.5653 9.17167 77.8604 9.27822C77.1554 9.38478 76.5571 9.49544 76.0161 9.602C75.6863 9.63481 75.3591 9.68957 75.0366 9.76593L74.5284 12.1717C75.0161 12.1184 75.4505 12.0077 75.8317 11.9545C76.2128 11.9012 76.6514 11.8479 76.971 11.7946C77.2907 11.7413 77.6759 11.684 78.0571 11.6307C78.4382 11.5774 78.8153 11.4708 79.2497 11.4135C79.2795 11.9905 79.2617 12.5689 79.1964 13.143C79.1334 14.0483 79.024 14.9497 78.8686 15.8438C78.6513 15.9012 78.3809 15.9012 78.0489 16.0077C77.7169 16.1143 77.4505 16.1676 77.1227 16.2249C76.7948 16.2823 76.5284 16.3315 76.2005 16.3848C75.8727 16.4381 75.7128 16.4954 75.4956 16.5487C75.2784 16.602 74.9013 16.6553 74.4669 16.7618C74.0558 16.8137 73.6542 16.9241 73.2743 17.0897C73.2556 17.3689 73.2005 17.6445 73.1104 17.9094C73.0377 18.1398 72.9829 18.3755 72.9464 18.6143C73.3842 18.5906 73.8197 18.5358 74.2497 18.4504C74.7374 18.3438 75.1718 18.2905 75.6063 18.1799L78.971 17.479C79.0246 17.7488 79.0425 18.0243 79.0243 18.2987C79.0705 18.7068 79.0884 19.1176 79.0776 19.5282C79.0776 20.0118 79.0776 20.5528 79.0243 21.1676C78.8481 21.8274 78.7948 22.4749 78.6841 23.1225Z" fill="white"/>
<path d="M91.9218 17.2337C91.9811 17.9716 91.9811 18.713 91.9218 19.4509C91.8685 20.4755 91.7619 21.5001 91.6513 22.5821C90.9464 22.746 90.1882 22.8525 89.1923 23.0698C88.1964 23.287 87.2947 23.4468 86.2087 23.664C85.1226 23.8812 84.0939 23.9878 83.0078 24.1476C82.0026 24.2977 80.9873 24.3704 79.9709 24.3648C79.9709 24.3116 80.0242 23.9878 80.1349 23.4468C80.2455 22.9058 80.3521 22.2173 80.5119 21.3976C80.6718 20.578 80.8931 19.6681 81.057 18.6435C81.2209 17.6189 81.4341 16.6968 81.6513 15.6722C81.8685 14.6476 82.0857 13.7788 82.2496 12.9181C82.4136 12.0575 82.6308 11.4017 82.7373 10.8689C82.7906 10.5984 82.9013 10.164 83.0652 9.51648C83.2291 8.86894 83.389 8.16812 83.5529 7.4673C83.7169 6.76648 83.93 6.06156 84.0939 5.41812C84.2578 4.77468 84.4218 4.28288 84.475 4.06976C84.8173 4.04065 85.1615 4.04065 85.5037 4.06976C85.9566 4.06193 86.4095 4.07971 86.8603 4.12304C87.3695 4.14993 87.8771 4.20328 88.3808 4.28288C88.9218 4.34025 89.4095 4.44681 89.7906 4.50009C89.7373 4.66402 89.6267 4.98779 89.4668 5.52878C89.307 6.06976 89.1923 6.60665 88.975 7.25419C88.7578 7.90173 88.6513 8.44271 88.4873 8.9837C88.3234 9.52468 88.2169 9.90173 88.1636 10.0657C87.8357 11.414 87.5652 12.7665 87.1882 14.164C86.8111 15.5616 86.5898 16.9181 86.3685 18.2624C86.8029 18.205 87.2906 18.1517 87.725 18.0985C88.2004 18.039 88.6713 17.9487 89.1349 17.828C89.1882 17.7747 89.3521 17.7747 89.6226 17.7214C89.9337 17.6905 90.242 17.6357 90.5447 17.5575C90.9259 17.5042 91.1431 17.4509 91.4669 17.3976C91.6081 17.3176 91.7619 17.2622 91.9218 17.2337Z" fill="white"/>
<path d="M104.996 17.2337C105.055 17.9716 105.055 18.713 104.996 19.4509C104.942 20.4755 104.725 20.6394 104.619 21.7173C103.914 21.8812 102.934 22.4222 101.959 22.6353C100.983 22.8484 100.32 23.455 99.2458 23.664C98.172 23.873 97.131 23.9878 96.0449 24.1476C95.0397 24.2977 94.0244 24.3704 93.0081 24.3648C93.0081 24.3116 93.0613 23.9878 93.172 23.4468C93.2827 22.9058 93.3892 22.2173 93.549 21.3976C93.7089 20.578 93.9302 19.6681 94.0941 18.6435C94.2581 17.6189 94.4712 16.6968 94.6884 15.6722C94.9056 14.6476 95.1228 13.7788 95.2867 12.9181C95.4507 12.0575 95.6679 11.4017 95.7745 10.8689C95.8277 10.5984 95.9384 10.164 96.1023 9.51648C96.2663 8.86894 96.4261 8.16812 96.59 7.4673C96.754 6.76648 96.9671 6.06156 97.131 5.41812C97.2949 4.77468 97.4548 4.28288 97.5122 4.06976C97.8544 4.04065 98.1986 4.04065 98.5408 4.06976C98.9937 4.06193 99.4466 4.07971 99.8974 4.12304C100.407 4.14993 100.914 4.20328 101.418 4.28288C101.959 4.34025 102.447 4.44681 102.828 4.50009C102.774 4.66402 102.664 4.98779 102.504 5.52878C102.344 6.06976 102.229 6.60665 102.012 7.25419C101.795 7.90173 101.688 8.44271 101.524 8.9837C101.361 9.52468 101.254 9.90173 101.201 10.0657C100.873 11.414 100.602 12.7665 100.225 14.164C99.8482 15.5616 99.6269 16.9181 99.4056 18.2624C99.84 18.205 100.328 18.1517 100.762 18.0985C101.237 18.039 101.708 17.9487 102.172 17.828C102.225 17.7747 102.389 17.7747 102.66 17.7214C102.971 17.6901 103.279 17.6353 103.582 17.5575C103.963 17.5042 104.18 17.4509 104.504 17.3976C104.654 17.3087 104.822 17.2528 104.996 17.2337Z" fill="white"/>
<path d="M45.1016 0.864259L52.3188 2.37655L53.2942 24.7413L46.3516 23.0692L45.1016 0.864259Z" fill="white"/>
<path d="M50.7991 12.3731L58.504 11.3977V16.8034H51.1679L50.7991 12.3731Z" fill="white"/>
<path d="M59.3648 1.72951L67.1517 1.90735e-06L63.246 24.7418L57.332 24.332L59.3648 1.72951Z" fill="white"/>
<path d="M43.75 48.7827C44.0205 48.1351 44.2377 47.4876 44.5697 46.8401C44.9016 46.1925 45.2213 45.5409 45.4918 45.0573C45.7975 44.4577 46.1397 43.8773 46.5164 43.3196C47.3386 43.7114 48.1911 44.0362 49.0656 44.2909C50.1469 44.5603 51.2587 44.6884 52.3729 44.672C52.7472 44.6884 53.1198 44.6138 53.459 44.4548C53.6429 44.379 53.8101 44.2675 53.9507 44.1269C54.0914 43.9862 54.2029 43.8191 54.2787 43.6351C54.332 43.4753 54.2787 43.3646 53.9508 43.2581C53.6229 43.1515 53.3566 43.0409 52.9221 42.881C52.4877 42.7212 52 42.6105 51.5082 42.4999C51.0164 42.3892 50.5861 42.2294 50.1557 42.1228C49.6639 41.9589 49.1762 41.7458 48.5164 41.4753C47.9159 41.1596 47.3638 40.7594 46.877 40.2868C46.4125 39.7822 46.0457 39.1957 45.7951 38.5573C45.5364 37.7543 45.4982 36.8965 45.6844 36.0737C45.8501 34.8695 46.2965 33.7211 46.9877 32.7212C47.605 31.7263 48.352 30.8181 49.209 30.0204C49.7068 29.4991 50.256 29.0294 50.8484 28.6187C51.4665 28.1401 52.1215 27.7112 52.8074 27.336C53.5123 26.9589 54.1639 26.6351 54.8156 26.3647C55.3773 26.0835 55.9831 25.9005 56.6066 25.8237C56.9972 25.7328 57.3986 25.697 57.7992 25.7171C58.254 25.6974 58.7096 25.7332 59.1557 25.8237C59.5683 25.8954 59.9584 26.0624 60.2951 26.3114C60.4826 26.411 60.647 26.549 60.7776 26.7163C60.9082 26.8837 61.0022 27.0766 61.0533 27.2827C61.3903 28.3121 61.4469 29.4127 61.2172 30.4712C61.1639 30.8483 61.1066 31.172 61 31.7007C60.8934 32.2294 60.8361 32.6187 60.6762 33.1597C60.5164 33.7007 60.459 34.0778 60.3484 34.5081C60.2736 34.8851 60.1452 35.2494 59.9672 35.5901C59.4641 35.654 58.9579 35.6896 58.4508 35.6966H56.9836C56.5474 35.7123 56.1106 35.6986 55.6762 35.6556C55.3711 35.6029 55.0632 35.5673 54.7541 35.5491C54.8461 35.3024 54.9187 35.0489 54.9713 34.7909C55.0673 34.4367 55.1398 34.0767 55.1885 33.713C55.2642 33.3202 55.3175 32.9234 55.3484 32.5245C55.4057 32.1433 55.459 31.9302 55.4057 31.8196C55.3525 31.7089 55.2418 31.6597 54.8074 31.8728C54.3591 32.135 53.9401 32.4441 53.5574 32.795C53.1475 33.2253 52.6926 33.6556 52.2582 34.1433C51.9305 34.514 51.6971 34.9583 51.5779 35.4384C51.5294 35.6585 51.5387 35.8873 51.6048 36.1027C51.6708 36.3182 51.7914 36.5129 51.9549 36.6679C52.274 36.9069 52.6208 37.1064 52.9877 37.2622C53.3931 37.3617 53.7915 37.4876 54.1803 37.6392C54.6148 37.7458 55 37.7991 55.4098 37.9097C55.8326 37.9608 56.2463 38.0697 56.6393 38.2335C57.1803 38.3933 57.7254 38.5573 58.2787 38.7745C58.8679 38.9798 59.3543 39.4059 59.6352 39.963C59.8133 40.2644 59.942 40.5923 60.0164 40.9343C60.0658 41.2377 60.0837 41.5453 60.0697 41.8524C60.058 42.1609 60.021 42.4679 59.959 42.7704C59.9071 43.0955 59.8538 43.3687 59.7992 43.5901C59.287 44.9964 58.4935 46.2835 57.4672 47.3728C56.3728 48.4583 55.0023 49.2237 53.5041 49.586C53.127 49.6966 52.7459 49.7499 52.2049 49.8564C51.736 49.9184 51.2639 49.954 50.791 49.963C49.6314 50.0247 48.4686 49.9712 47.3197 49.8032C46.6148 49.6966 46.0902 49.586 45.5287 49.4794C44.922 49.2841 44.328 49.0514 43.75 48.7827Z" fill="white"/>
<path d="M78.0904 33.7129C78.0307 34.3649 77.8661 35.0029 77.6027 35.6022C77.3647 36.2359 77.0148 36.8217 76.5699 37.3317C75.6895 38.2595 74.7296 39.1084 73.701 39.8686C72.6608 40.6201 71.5521 41.2719 70.3895 41.8154C69.4674 42.3031 68.5453 42.6801 67.6764 43.0449C67.6815 43.1727 67.6635 43.3005 67.6231 43.4219C67.5486 43.6336 67.4937 43.8518 67.4592 44.0735C67.3937 44.4884 67.3033 44.899 67.1887 45.3031C67.0822 45.7867 66.9715 46.5326 66.8076 47.4096C66.7543 47.6801 66.701 47.8932 66.6477 48.1637C66.6212 48.3285 66.5842 48.4913 66.5371 48.6514C65.5873 48.8108 64.6296 48.9189 63.6682 48.9752C62.7461 49.0285 62.0289 49.0817 61.4961 49.0817C61.6067 48.3809 61.7133 47.5162 61.824 46.5449C61.9346 45.5735 62.1477 44.5449 62.3117 43.5203C62.4756 42.4957 62.6887 41.4137 62.8527 40.385C63.0166 39.3563 63.2338 38.4424 63.3936 37.6309C63.4691 37.2379 63.5239 36.8412 63.5576 36.4424C63.6682 35.8481 63.7215 35.3072 63.8854 34.6596C63.9482 34.2577 64.0386 33.8606 64.1559 33.4711L62.8527 33.4178C62.9059 33.1473 62.9633 32.7703 63.0699 32.3358C63.1764 31.9014 63.2338 31.4178 63.3936 30.9301C63.5535 30.4424 63.6682 29.9055 63.7748 29.3645C63.8813 28.8235 64.0453 28.3399 64.2092 27.9055C64.5904 27.9055 65.1313 27.8522 65.9469 27.9055C66.8543 27.9047 67.7603 27.9773 68.6559 28.1227C69.81 28.2239 70.9534 28.4227 72.074 28.717C73.3409 29.0047 74.5764 29.4165 75.7625 29.9465C76.0773 30.0566 76.3702 30.2217 76.6272 30.4342C76.9184 30.6239 77.176 30.8608 77.3895 31.135C77.6597 31.4711 77.8616 31.8567 77.9838 32.2703C78.1096 32.7402 78.1458 33.2296 78.0904 33.7129ZM68.7584 37.4383C69.0289 37.3317 69.3568 37.2211 69.7338 37.0613L70.9264 36.467C71.3059 36.29 71.6546 36.0534 71.9592 35.7662C72.2094 35.5942 72.3988 35.3474 72.5002 35.0613C72.5576 34.9014 72.4469 34.7375 72.1764 34.5776C72.0098 34.4052 71.8048 34.2746 71.5781 34.1965C71.4182 34.1432 71.201 34.0899 70.7584 33.926C70.3159 33.7809 69.8622 33.6727 69.4018 33.6022C69.4018 33.6022 69.3486 33.6555 69.2912 33.9834C69.2379 34.2498 69.1846 34.5203 69.1313 34.844C69.0781 35.1678 69.0207 35.385 68.9674 35.6637C68.9342 35.8062 68.9163 35.9518 68.9141 36.0981C68.8568 36.3113 68.9141 36.508 68.8568 36.7457C68.8534 36.9798 68.8204 37.2125 68.7584 37.4383Z" fill="white"/>
<path d="M82.6472 47.2697C82.1061 47.3778 81.5585 47.4504 81.0079 47.4869C80.4095 47.5935 79.9218 47.5935 79.3685 47.7041L77.9054 47.864C77.5405 47.8636 77.1766 47.9006 76.8193 47.9746C76.8742 47.8368 76.8939 47.6875 76.8767 47.5402C76.93 47.323 76.9833 47.0566 77.0365 46.8394C77.0898 46.4623 77.2005 45.8107 77.3644 44.9459C77.5284 44.0812 77.7415 42.95 77.9587 41.7615C78.1759 40.573 78.3931 39.2738 78.6636 37.9787C78.9341 36.6836 79.1554 35.3845 79.3685 34.2492C79.5816 33.114 79.7497 32.0361 79.9669 31.1713C80.1841 30.3066 80.2906 29.659 80.348 29.3886C80.6185 29.3353 80.9997 29.3353 81.43 29.2287C81.8958 29.1244 82.3682 29.0518 82.8439 29.0115C83.3871 28.9279 83.9343 28.8731 84.4833 28.8476C85.0389 28.7607 85.6014 28.725 86.1636 28.741C86.1636 28.741 86.2169 28.7943 86.1103 29.0115C86.0038 29.2287 86.1103 29.282 85.9997 29.4951C85.889 29.7082 85.9464 29.823 85.8931 29.9828C85.8626 30.07 85.8446 30.1611 85.8398 30.2533C85.7292 30.6304 85.5693 31.2779 85.4054 32.0894C85.2415 32.9009 85.0243 33.7287 84.8603 34.6304C84.6964 35.532 84.5366 36.4131 84.3193 37.2205C84.1021 38.0279 84.0488 38.6263 83.9382 39.0607C83.6144 40.7328 83.4505 42.1918 83.2333 43.491C83.0161 44.7902 82.8644 45.9746 82.6472 47.2697Z" fill="white"/>
<path d="M99.938 42.6262C99.9391 42.8432 99.9213 43.0599 99.8847 43.2738C99.8676 43.617 99.8321 43.959 99.7782 44.2984C99.7878 44.66 99.7686 45.0218 99.7208 45.3803C99.7299 45.6186 99.6938 45.8564 99.6142 46.0812C99.0733 46.2984 98.5282 46.5689 97.9749 46.7861C97.4216 47.0033 96.9421 47.1631 96.4011 47.323C95.8601 47.4828 95.4257 47.5935 94.9913 47.7041C94.5569 47.8148 94.229 47.8639 93.9052 47.9746C93.7987 47.5935 93.688 47.2164 93.5241 46.7451C93.3601 46.2738 93.3069 45.7738 93.2003 45.2902C93.0938 44.8066 93.0364 44.4254 92.9298 43.991C92.8233 43.5566 92.7659 43.0197 92.6593 42.532C92.6177 42.1961 92.5251 41.8686 92.3847 41.5607C92.2627 41.079 92.0995 40.6087 91.897 40.1549C91.6849 40.7029 91.5043 41.2626 91.356 41.8312C91.1921 42.3721 91.0856 42.9664 90.9216 43.5074C90.9217 43.6525 90.9038 43.797 90.8683 43.9377C90.8151 44.1549 90.8151 44.368 90.7577 44.6385C90.7003 44.909 90.6511 45.2328 90.5979 45.5566C90.5446 45.8803 90.4872 46.1508 90.4339 46.4787C90.3806 46.8066 90.3806 46.9623 90.3233 47.1795C90.2659 47.3967 90.27 47.5566 90.2167 47.6098C89.729 47.7205 89.2413 47.7738 88.6429 47.8803C88.1336 47.908 87.626 47.9627 87.1224 48.0443C86.6347 48.0975 86.2003 48.0975 85.8233 48.1508C85.4462 48.2041 85.1183 48.2041 84.8438 48.2041C84.8506 48.0661 84.8698 47.9289 84.9011 47.7943L85.061 46.823C85.1183 46.4418 85.1716 46.1713 85.2249 45.9049C85.2484 45.7396 85.2854 45.5765 85.3356 45.4172C85.4007 45.0023 85.491 44.5917 85.606 44.1877C85.7659 43.5935 85.8765 42.9582 86.0405 42.241C86.2044 41.5238 86.3642 40.8353 86.5282 40.1344C86.691 39.5877 86.7994 39.0262 86.852 38.4582C86.9626 37.9746 87.0159 37.4336 87.1798 36.8926C87.3437 36.3517 87.4503 35.7041 87.5036 35.1631C87.5673 34.8942 87.6044 34.6196 87.6142 34.3435C87.6764 34.0744 87.7121 33.7998 87.7208 33.5238C87.7257 33.304 87.7616 33.086 87.8274 32.8762C87.9276 32.4483 88.0001 32.0143 88.0446 31.5771C88.1552 31.0935 88.2085 30.7123 88.2618 30.3475C88.3286 30.1197 88.3657 29.8841 88.3724 29.6467C88.7536 29.5361 89.1306 29.4828 89.6757 29.3762L91.1921 29.0525C91.7372 28.9418 92.2782 28.8885 92.8315 28.782C93.3847 28.6754 93.9175 28.618 94.4708 28.5648C94.628 29.0391 94.7378 29.5278 94.7987 30.0238C94.9052 30.6713 95.0692 31.3762 95.1798 32.1836C95.2905 32.991 95.4503 33.6959 95.5569 34.4008C95.646 34.9554 95.7733 35.5032 95.938 36.0402C96.0148 35.6653 96.0695 35.2862 96.102 34.9049C96.2085 34.368 96.2618 33.7738 96.4257 33.1221C96.5323 32.6385 96.5897 32.0975 96.6962 31.5566C96.8028 31.0156 96.8601 30.532 96.9667 30.0975C97.0733 29.6631 97.1306 29.1795 97.2413 28.868C97.3275 28.6023 97.3812 28.3271 97.4011 28.0484C97.9995 27.9418 98.7577 27.8353 99.7905 27.7246C100.83 27.5575 101.881 27.4671 102.934 27.4541C102.881 27.6713 102.774 28.1057 102.61 28.8066C102.508 29.5168 102.363 30.2203 102.176 30.9131C102.012 31.6713 101.852 32.3721 101.741 33.0197C101.631 33.6672 101.524 34.1549 101.471 34.3721C101.307 35.1262 101.2 35.8312 100.983 36.5853C100.766 37.3394 100.655 38.0443 100.495 38.8557C100.385 39.45 100.331 40.0443 100.225 40.6918C100.09 41.3302 99.9945 41.9762 99.938 42.6262Z" fill="white"/>
<path d="M31.8572 37.3084C31.4118 34.6938 32.231 32.4177 32.4139 29.8381V29.6903L32.2867 29.7526C31.8184 29.9689 31.3004 30.0616 30.7841 30.0213C30.2679 29.9811 29.7714 29.8092 29.3441 29.523C28.7198 30.7603 27.7535 32.1298 27.1212 33.476C27.5705 34.9506 26.7713 36.8376 24.7353 36.8376H24.0752C23.6776 36.8321 23.2865 36.7385 22.9313 36.5637C22.5761 36.3889 22.266 36.1375 22.0245 35.8285C21.7829 35.5195 21.6161 35.1609 21.5367 34.7797C21.4573 34.3985 21.4674 34.0046 21.566 33.6277C21.9239 32.0325 23.0294 30.6357 23.7611 29.1806C24.7757 27.2994 25.6786 25.3625 26.4651 23.3795C27.0337 21.8232 28.1591 21.5975 28.5885 19.9518C28.3897 15.9171 26.2424 5.48207 18.1105 1.90735e-06C18.1105 1.90735e-06 21.9677 7.39242 14.2851 18.9635C11.2311 22.2123 3.54856 20.3953 4.27626 31.4723C3.17874 31.6045 1.44102 29.9977 1.32172 28.6748C1.32172 28.6748 -0.0700496 47.2415 19.3273 47.2415C26.0356 47.2415 31.0579 43.8682 34.1835 39.0942C33.0979 39.0865 32.064 38.4989 31.8572 37.3084Z" fill="url(#paint0_linear_323_2425)"/>
<path d="M27.4954 19.9204C27.2965 20.3095 25.5071 21.7296 25.2367 22.0914C23.4871 24.4492 24.6561 25.3324 23.1013 27.7875C22.8525 29.5862 22.506 31.3707 22.0635 33.1334L22.3299 33.0945C25.1134 32.7054 27.897 32.4642 30.6607 31.9934C32.147 31.5298 33.668 31.1799 35.2098 30.9468C35.5852 30.8853 35.9696 30.8999 36.3391 30.9896C36.7102 31.0753 37.0585 31.2371 37.361 31.4642C39.1783 23.2664 36.8043 14.1154 29.591 9.99509C29.9886 11.209 30.3664 17.6326 27.4954 19.9204Z" fill="#C4C4C4"/>
<path d="M27.4954 19.9204C27.2965 20.3095 25.5071 21.7296 25.2367 22.0914C23.4871 24.4492 24.6561 25.3324 23.1013 27.7875C22.8525 29.5862 22.506 31.3707 22.0635 33.1334L22.3299 33.0945C25.1134 32.7054 27.897 32.4642 30.6607 31.9934C32.147 31.5298 33.668 31.1799 35.2098 30.9468C35.5852 30.8853 35.9696 30.8999 36.3391 30.9896C36.7102 31.0753 37.0585 31.2371 37.361 31.4642C39.1783 23.2664 36.8043 14.1154 29.591 9.99509C29.9886 11.209 30.3664 17.6326 27.4954 19.9204Z" fill="url(#paint1_linear_323_2425)"/>
<path d="M11.6998 14.5747C15.04 11.9251 14.9247 7.83203 14.9247 7.83203C14.9247 8.19387 8.63789 11.0847 8.50666 14.4463C8.37544 17.8079 10.0336 19.5432 10.0336 19.5432C10.0336 19.5432 8.37146 17.2243 11.6998 14.5747Z" fill="url(#paint2_linear_323_2425)"/>
<path fill-rule="evenodd" clip-rule="evenodd" d="M30.9862 26.2168C33.2886 26.5709 35.1894 26.1157 35.7262 16.4238C42.4306 30.2866 37.1299 39.85 27.5943 45.5227L28.0794 46.4293C28.1828 46.6253 28.245 46.8396 28.2623 47.0596C28.2832 47.2802 28.2575 47.5027 28.1868 47.7132C28.1189 47.9247 28.008 48.1206 27.8607 48.2891C27.7138 48.4566 27.5357 48.5952 27.3358 48.6976L27.0217 48.8571C26.8187 48.9589 26.597 49.0198 26.3695 49.0361C26.144 49.0565 25.9166 49.0314 25.7015 48.9622C25.4841 48.8958 25.2826 48.7873 25.109 48.6431C24.9449 48.4977 24.81 48.3235 24.7113 48.1295L23.9836 46.76C23.7371 46.8145 23.4826 46.8689 23.2281 46.9156L23.3315 48.149C23.3504 48.3696 23.3248 48.5917 23.2559 48.8026C23.1513 49.1215 22.9522 49.4027 22.6838 49.6105C22.4155 49.8184 22.09 49.9434 21.7488 49.9699L21.3949 49.9971C21.1696 50.0162 20.9427 49.9916 20.7271 49.9248C20.5115 49.8581 20.3114 49.7504 20.1383 49.608C19.9653 49.466 19.8233 49.2913 19.7208 49.0944C19.6174 48.8982 19.5539 48.6841 19.5339 48.4641L19.4345 47.258C19.0369 47.258 18.683 47.258 18.3211 47.2347L18.2177 48.4641C18.1769 48.9059 17.9598 49.3142 17.6133 49.6002C17.2649 49.8844 16.8168 50.024 16.3647 49.9893L16.0107 49.9582C15.7727 49.9478 15.5396 49.8881 15.3268 49.7831C15.1251 49.6818 14.9454 49.5431 14.7979 49.3746C14.6528 49.2047 14.5421 49.0092 14.4718 48.7987C14.4033 48.5891 14.3777 48.3683 14.3963 48.149L14.5076 46.83C14.2134 46.7756 13.9231 46.7133 13.6408 46.651L13.0483 47.7716C12.839 48.1687 12.4771 48.4682 12.0422 48.6042C11.8256 48.6718 11.5976 48.697 11.371 48.6783C11.1445 48.6596 10.924 48.5974 10.722 48.4953L10.3999 48.3396C10.199 48.2371 10.0207 48.097 9.87502 47.9272C9.72782 47.7602 9.61688 47.5656 9.54895 47.3553C9.47985 47.1447 9.4541 46.9228 9.47322 46.7024C9.49233 46.482 9.55591 46.2675 9.66029 46.0713L9.99431 45.441C-0.00258636 40.5893 1.2858 28.5746 1.2858 28.5746C1.41305 29.8936 4.82885 34.1462 5.93034 34.0217C5.64801 29.7613 6.37571 28.4034 7.60047 28.2323C7.78736 28.0377 7.99812 27.8432 8.18104 27.6603C9.37398 26.5164 10.5669 25.3959 9.80344 23.3416C11.5836 25.3302 13.1667 27.4798 14.5315 29.7613C14.7804 29.7149 15.0222 29.6378 15.2512 29.5318C13.8634 23.9135 18.8857 16.8363 18.8857 16.8363C20.3928 21.3223 21.5818 24.7422 22.9656 26.5942C23.4508 25.5048 24.5801 24.5205 25.6975 23.5439C27.133 22.295 28.5407 21.0694 28.5089 19.6843C30.2704 21.6452 31.4674 23.7851 30.9862 26.2168Z" fill="#C4C4C4"/>
<path fill-rule="evenodd" clip-rule="evenodd" d="M30.9862 26.2168C33.2886 26.5709 35.1894 26.1157 35.7262 16.4238C42.4306 30.2866 37.1299 39.85 27.5943 45.5227L28.0794 46.4293C28.1828 46.6253 28.245 46.8396 28.2623 47.0596C28.2832 47.2802 28.2575 47.5027 28.1868 47.7132C28.1189 47.9247 28.008 48.1206 27.8607 48.2891C27.7138 48.4566 27.5357 48.5952 27.3358 48.6976L27.0217 48.8571C26.8187 48.9589 26.597 49.0198 26.3695 49.0361C26.144 49.0565 25.9166 49.0314 25.7015 48.9622C25.4841 48.8958 25.2826 48.7873 25.109 48.6431C24.9449 48.4977 24.81 48.3235 24.7113 48.1295L23.9836 46.76C23.7371 46.8145 23.4826 46.8689 23.2281 46.9156L23.3315 48.149C23.3504 48.3696 23.3248 48.5917 23.2559 48.8026C23.1513 49.1215 22.9522 49.4027 22.6838 49.6105C22.4155 49.8184 22.09 49.9434 21.7488 49.9699L21.3949 49.9971C21.1696 50.0162 20.9427 49.9916 20.7271 49.9248C20.5115 49.8581 20.3114 49.7504 20.1383 49.608C19.9653 49.466 19.8233 49.2913 19.7208 49.0944C19.6174 48.8982 19.5539 48.6841 19.5339 48.4641L19.4345 47.258C19.0369 47.258 18.683 47.258 18.3211 47.2347L18.2177 48.4641C18.1769 48.9059 17.9598 49.3142 17.6133 49.6002C17.2649 49.8844 16.8168 50.024 16.3647 49.9893L16.0107 49.9582C15.7727 49.9478 15.5396 49.8881 15.3268 49.7831C15.1251 49.6818 14.9454 49.5431 14.7979 49.3746C14.6528 49.2047 14.5421 49.0092 14.4718 48.7987C14.4033 48.5891 14.3777 48.3683 14.3963 48.149L14.5076 46.83C14.2134 46.7756 13.9231 46.7133 13.6408 46.651L13.0483 47.7716C12.839 48.1687 12.4771 48.4682 12.0422 48.6042C11.8256 48.6718 11.5976 48.697 11.371 48.6783C11.1445 48.6596 10.924 48.5974 10.722 48.4953L10.3999 48.3396C10.199 48.2371 10.0207 48.097 9.87502 47.9272C9.72782 47.7602 9.61688 47.5656 9.54895 47.3553C9.47985 47.1447 9.4541 46.9228 9.47322 46.7024C9.49233 46.482 9.55591 46.2675 9.66029 46.0713L9.99431 45.441C-0.00258636 40.5893 1.2858 28.5746 1.2858 28.5746C1.41305 29.8936 4.82885 34.1462 5.93034 34.0217C5.64801 29.7613 6.37571 28.4034 7.60047 28.2323C7.78736 28.0377 7.99812 27.8432 8.18104 27.6603C9.37398 26.5164 10.5669 25.3959 9.80344 23.3416C11.5836 25.3302 13.1667 27.4798 14.5315 29.7613C14.7804 29.7149 15.0222 29.6378 15.2512 29.5318C13.8634 23.9135 18.8857 16.8363 18.8857 16.8363C20.3928 21.3223 21.5818 24.7422 22.9656 26.5942C23.4508 25.5048 24.5801 24.5205 25.6975 23.5439C27.133 22.295 28.5407 21.0694 28.5089 19.6843C30.2704 21.6452 31.4674 23.7851 30.9862 26.2168Z" fill="url(#paint3_linear_323_2425)"/>
<path d="M22.7306 13.147C24.0906 10.6297 22.9096 8.75439 21.0963 7.15918C21.5337 9.49363 20.1658 11.972 19.9391 14.3532C19.8835 14.9407 20.3765 13.9913 20.7742 13.1626C20.8155 13.0591 20.8815 12.9668 20.9667 12.8933C21.0519 12.8199 21.1539 12.7674 21.264 12.7404C21.3742 12.7134 21.4893 12.7125 21.5999 12.7379C21.7105 12.7633 21.8132 12.8142 21.8995 12.8864C22.3648 13.3416 22.4284 13.7073 22.7306 13.147Z" fill="#C4C4C4"/>
<path d="M22.7306 13.147C24.0906 10.6297 22.9096 8.75439 21.0963 7.15918C21.5337 9.49363 20.1658 11.972 19.9391 14.3532C19.8835 14.9407 20.3765 13.9913 20.7742 13.1626C20.8155 13.0591 20.8815 12.9668 20.9667 12.8933C21.0519 12.8199 21.1539 12.7674 21.264 12.7404C21.3742 12.7134 21.4893 12.7125 21.5999 12.7379C21.7105 12.7633 21.8132 12.8142 21.8995 12.8864C22.3648 13.3416 22.4284 13.7073 22.7306 13.147Z" fill="url(#paint4_linear_323_2425)"/>
<g opacity="0.9">
<path opacity="0.9" d="M18.9813 38.289L10.9528 34.8262C10.893 34.7998 10.8269 34.7904 10.7619 34.799C10.6982 34.81 10.639 34.8384 10.5909 34.8807C10.5455 34.9243 10.5138 34.9796 10.4995 35.0402C10.4797 35.101 10.4797 35.1662 10.4995 35.227C12.0901 39.534 14.9213 40.4172 18.9654 38.8765C19.0274 38.8568 19.0816 38.8187 19.1205 38.7675C19.1581 38.7151 19.1783 38.6526 19.1783 38.5886C19.1783 38.5245 19.1581 38.462 19.1205 38.4096C19.0874 38.3567 19.039 38.3147 18.9813 38.289Z" fill="white"/>
</g>
<path d="M10.8932 34.8688C10.8696 34.8167 10.8271 34.7751 10.7739 34.7521L10.2649 34.5342C11.8078 39.5104 14.8021 40.522 19.1643 38.7945C19.2082 38.7775 19.2457 38.7476 19.2716 38.709C19.2972 38.6708 19.3111 38.6262 19.3114 38.5806C19.3105 38.5362 19.2967 38.493 19.2716 38.4561C19.2457 38.4174 19.2082 38.3876 19.1643 38.3705L18.1304 37.923C18.0779 37.9036 18.0199 37.9036 17.9674 37.923C14.7504 38.8568 12.3764 38.032 10.8932 34.8688Z" fill="#E93F3A"/>
<g opacity="0.9">
<path opacity="0.9" d="M20.9972 38.2891L29.0377 34.8263C29.0974 34.7997 29.1636 34.7903 29.2286 34.7991C29.2914 34.8094 29.3495 34.8378 29.3956 34.8808C29.4431 34.9239 29.4764 34.9798 29.4913 35.0415C29.5061 35.1032 29.5019 35.1678 29.4791 35.2271C27.8885 39.5341 25.0572 40.4173 21.0132 38.8766C20.9512 38.8569 20.897 38.8188 20.8581 38.7677C20.8174 38.7165 20.795 38.6536 20.7944 38.5887C20.7918 38.524 20.8099 38.46 20.8461 38.4058C20.8832 38.3528 20.9359 38.312 20.9972 38.2891Z" fill="white"/>
</g>
<path d="M29.0816 34.8688C29.1061 34.8174 29.1483 34.776 29.2009 34.7521L29.7098 34.5342C28.1709 39.5104 25.1727 40.522 20.8105 38.7945C20.7666 38.7775 20.7291 38.7476 20.7031 38.709C20.6775 38.6708 20.6637 38.6262 20.6633 38.5806C20.6642 38.5362 20.678 38.493 20.7031 38.4561C20.7291 38.4174 20.7666 38.3876 20.8105 38.3705L21.8483 37.923C21.8995 37.9035 21.9562 37.9035 22.0074 37.923C25.2244 38.8568 27.5983 38.032 29.0816 34.8688Z" fill="#E93F3A"/>
</g>
<defs>
<linearGradient id="paint0_linear_323_2425" x1="15.0764" y1="63.2441" x2="19.2006" y2="15.8545" gradientUnits="userSpaceOnUse">
<stop stop-color="#FCEF44"/>
<stop offset="0.04" stop-color="#FDE62A"/>
<stop offset="0.12" stop-color="#FDD519"/>
<stop offset="0.2" stop-color="#FCCB16"/>
<stop offset="0.28" stop-color="#FDC713"/>
<stop offset="0.67" stop-color="#F29140"/>
<stop offset="0.89" stop-color="#ED683C"/>
<stop offset="1" stop-color="#E93F3A"/>
</linearGradient>
<linearGradient id="paint1_linear_323_2425" x1="31.1537" y1="43.0003" x2="28.9528" y2="15.3994" gradientUnits="userSpaceOnUse">
<stop stop-color="#FCEF44"/>
<stop offset="0.04" stop-color="#FDE62A"/>
<stop offset="0.12" stop-color="#FDD519"/>
<stop offset="0.2" stop-color="#FCCB16"/>
<stop offset="0.28" stop-color="#FDC713"/>
<stop offset="0.67" stop-color="#F29140"/>
<stop offset="0.89" stop-color="#ED683C"/>
<stop offset="1" stop-color="#E93F3A"/>
</linearGradient>
<linearGradient id="paint2_linear_323_2425" x1="11.4493" y1="21.3096" x2="11.7881" y2="7.92892" gradientUnits="userSpaceOnUse">
<stop stop-color="#FCEF44"/>
<stop offset="0.04" stop-color="#FDE62A"/>
<stop offset="0.12" stop-color="#FDD519"/>
<stop offset="0.2" stop-color="#FCCB16"/>
<stop offset="0.28" stop-color="#FDC713"/>
<stop offset="0.67" stop-color="#F29140"/>
<stop offset="0.89" stop-color="#ED683C"/>
<stop offset="1" stop-color="#E93F3A"/>
</linearGradient>
<linearGradient id="paint3_linear_323_2425" x1="19.8799" y1="20.0772" x2="20.2644" y2="52.3707" gradientUnits="userSpaceOnUse">
<stop stop-color="#FCEF44"/>
<stop offset="0.04" stop-color="#FDE62A"/>
<stop offset="0.12" stop-color="#FDD519"/>
<stop offset="0.2" stop-color="#FCCB16"/>
<stop offset="0.28" stop-color="#FDC713"/>
<stop offset="0.67" stop-color="#F29140"/>
<stop offset="0.89" stop-color="#ED683C"/>
<stop offset="1" stop-color="#E93F3A"/>
</linearGradient>
<linearGradient id="paint4_linear_323_2425" x1="20.9213" y1="14.4038" x2="27.0426" y2="-10.8395" gradientUnits="userSpaceOnUse">
<stop stop-color="#FCEF44"/>
<stop offset="0.04" stop-color="#FDE62A"/>
<stop offset="0.12" stop-color="#FDD519"/>
<stop offset="0.2" stop-color="#FCCB16"/>
<stop offset="0.28" stop-color="#FDC713"/>
<stop offset="0.67" stop-color="#F29140"/>
<stop offset="0.89" stop-color="#ED683C"/>
<stop offset="1" stop-color="#E93F3A"/>
</linearGradient>
<clipPath id="clip0_323_2425">
<rect width="130" height="50" fill="white"/>
</clipPath>
</defs>
</svg>
