<svg width="32" height="32" viewBox="0 0 32 32" fill="none" xmlns="http://www.w3.org/2000/svg">
<g clip-path="url(#clip0_323_2151)">
<path d="M0 32.0003H32V15.4043H0V32.0003ZM22.0315 18.8774H28.8449V20.9955L27.0214 23.9865C26.2857 25.1933 25.8968 26.5885 25.8968 28.0213V28.8182H24.0218V28.0213C24.0218 26.212 24.5129 24.4502 25.442 22.9262L26.7108 20.8449H23.9065V22.7537H22.0315V18.8774ZM12.5933 18.8774H19.4067V20.9955L17.5833 23.9865C16.8476 25.1933 16.4586 26.5885 16.4586 28.0213V28.8182H14.5836V28.0213C14.5836 26.2121 15.0747 24.4502 16.0038 22.9262L17.2726 20.8449H14.4683V22.7537H12.5933L12.5933 18.8774ZM3.03006 18.8774H9.84344V20.9955L8.02 23.9865C7.28425 25.1933 6.89537 26.5885 6.89537 28.0213V28.8182H5.02037V28.0213C5.02037 26.212 5.51144 24.4502 6.44056 22.9262L7.70937 20.8449H4.90506V22.7537H3.03006V18.8774Z" fill="white"/>
<path d="M1.85019 12.6204L4.84381 11.9069L7.83744 12.6204L8.11588 9.41226L9.68756 6.64506L6.86606 5.37581L4.84381 2.95221L2.82156 5.37581L0 6.64506L1.57169 9.41226L1.85019 12.6204Z" fill="white"/>
<path d="M13.0064 9.66817L16 8.95468L18.9936 9.66817L19.2721 6.46005L20.8438 3.69298L18.0223 2.42367L16 0L13.9778 2.42367L11.1562 3.69298L12.7279 6.46005L13.0064 9.66817Z" fill="white"/>
<path d="M24.1626 12.6204L27.1562 11.9069L30.1499 12.6204L30.4284 9.41226L32.0001 6.64506L29.1785 5.37581L27.1562 2.95221L25.134 5.37581L22.3125 6.64506L23.8842 9.41226L24.1626 12.6204Z" fill="white"/>
</g>
<defs>
<clipPath id="clip0_323_2151">
<rect width="32" height="32" fill="white"/>
</clipPath>
</defs>
</svg>
