<svg width="32" height="32" viewBox="0 0 32 32" fill="none" xmlns="http://www.w3.org/2000/svg">
<g clip-path="url(#clip0_323_2247)">
<path d="M10.5539 16.2629L4.92538 14.0547C4.34092 15.7997 4.32576 17.6454 4.88156 19.3985L10.5457 17.2699C10.4983 16.9352 10.5011 16.5969 10.5539 16.2629Z" fill="white"/>
<path d="M17.3118 25.7144L15.0161 20.4632C14.8456 20.484 14.6742 20.4953 14.5028 20.4953C14.3113 20.4953 14.12 20.4819 13.9299 20.4561L11.5508 25.6689C12.504 25.9424 13.5031 26.0866 14.5158 26.0866C15.4453 26.0867 16.3857 25.9657 17.3118 25.7144Z" fill="white"/>
<path d="M9.6877 24.9372L12.0668 19.7243C11.778 19.5187 11.522 19.2777 11.3047 19.0068L5.64258 21.1347C6.5833 22.788 8.0089 24.0859 9.6877 24.9372Z" fill="white"/>
<path d="M14.499 32.1515C12.3163 32.1515 10.1357 31.745 8.06508 30.9326C8.03744 30.9218 8.01028 30.9102 7.98277 30.8993V32.1253H6.20312V34.0004H22.8036V32.1253H21.0239V30.8975C20.9178 30.9396 20.8116 30.9815 20.7044 31.0218C18.7 31.775 16.5985 32.1514 14.499 32.1515Z" fill="white"/>
<path d="M5.71289 12.328L11.3414 14.5362C11.5632 14.2685 11.8231 14.0311 12.1152 13.8296L9.81936 8.57812C8.07524 9.42894 6.65698 10.724 5.71289 12.328Z" fill="white"/>
<path d="M27.8464 22.0672C29.355 18.7619 29.3849 15.1099 27.9308 11.7837C26.2302 7.89387 22.7256 5.01274 18.4146 3.89374L16.3049 5.74805C17.2871 5.88743 18.2574 6.14099 19.1964 6.50937C22.1592 7.6718 24.4565 9.83437 25.6651 12.5988C26.8737 15.3632 26.8488 18.3985 25.595 21.1455C24.3413 23.8925 22.0088 26.0225 19.0271 27.143C17.55 27.6981 16.0216 27.961 14.5178 27.9611C9.75558 27.9612 5.23628 25.3257 3.34022 20.9886C2.13168 18.2242 2.15655 15.1889 3.41033 12.4419C4.6641 9.69487 6.99658 7.56493 9.97817 6.44443C10.8649 6.11118 11.7775 5.87993 12.7 5.74887L10.5876 3.89355C10.0691 4.02905 9.55692 4.19049 9.05605 4.37868C5.46858 5.72687 2.66206 8.28968 1.15354 11.5949C-0.354909 14.9002 -0.384907 18.5522 1.06921 21.8784C2.52333 25.2045 5.28752 27.8066 8.85241 29.2052C12.4174 30.6037 16.3564 30.6315 19.9439 29.2834C23.5314 27.9351 26.3379 25.3724 27.8464 22.0672Z" fill="white"/>
<path d="M16.3469 2H12.6584V3.17463L14.5026 4.8845L16.3469 3.17463V2Z" fill="white"/>
<path d="M23.2878 21.2589L17.6644 19.0527C17.4427 19.3205 17.1827 19.5579 16.8906 19.7594L19.1863 25.0104C20.9697 24.1382 22.3695 22.8155 23.2878 21.2589Z" fill="white"/>
<path d="M11.6934 7.87376L13.9894 13.1258C14.3541 13.0821 14.7187 13.0868 15.0741 13.1351L17.4571 7.91413C16.4917 7.6362 15.4976 7.49707 14.5032 7.49707C13.5588 7.49701 12.6143 7.62276 11.6934 7.87376Z" fill="white"/>
<path d="M18.4512 17.3258L24.0745 19.532C24.6402 17.8371 24.6895 15.9845 24.123 14.1904L18.4594 16.3188C18.5069 16.6535 18.5041 16.9917 18.4512 17.3258Z" fill="white"/>
<path d="M19.3203 8.64453L16.9375 13.8654C17.2224 14.0683 17.48 14.3077 17.7 14.5807L23.3649 12.4518C22.4472 10.8348 21.0504 9.51978 19.3203 8.64453Z" fill="white"/>
<path d="M14.502 18.6186C15.5888 18.6186 16.4698 17.8018 16.4698 16.7942C16.4698 15.7866 15.5888 14.9697 14.502 14.9697C13.4152 14.9697 12.5342 15.7866 12.5342 16.7942C12.5342 17.8018 13.4152 18.6186 14.502 18.6186Z" fill="white"/>
</g>
<defs>
<clipPath id="clip0_323_2247">
<rect width="32" height="32" fill="white"/>
</clipPath>
</defs>
</svg>
