<svg width="32" height="32" viewBox="0 0 32 32" fill="none" xmlns="http://www.w3.org/2000/svg">
<g clip-path="url(#clip0_323_2279)">
<g clip-path="url(#clip1_323_2279)">
<path d="M22.6366 7.94647C21.9708 7.70847 21.2307 7.50559 20.4346 7.33984C20.5331 8.19222 20.584 9.07584 20.584 9.97516C20.584 10.8745 20.5331 11.7581 20.4346 12.6105C21.2307 12.4448 21.9708 12.2419 22.6366 12.0039C24.301 11.409 25.3349 10.6317 25.3349 9.97516C25.3349 9.31872 24.301 8.54128 22.6366 7.94647Z" fill="white"/>
<path d="M28.6746 5.80867V9.01192H27.3965C27.4273 9.32948 27.4439 9.65067 27.4439 9.97517C27.4439 10.2802 27.4294 10.5823 27.4022 10.8812H30.7769V5.79492C30.4301 5.87442 30.0667 5.91673 29.6924 5.91673C29.342 5.91673 29.0014 5.87867 28.6746 5.80867Z" fill="white"/>
<path d="M24.6738 13.2207C24.293 13.4066 23.8761 13.5815 23.4227 13.7435C22.4383 14.0953 21.3182 14.379 20.1073 14.5882C19.872 15.6649 19.5531 16.6608 19.1574 17.5361C18.9751 17.9393 18.7784 18.31 18.5693 18.6486C21.3807 17.7101 23.6183 15.7205 24.6738 13.2207Z" fill="white"/>
<path d="M18.5693 1.30176C18.7784 1.64032 18.9751 2.01107 19.1574 2.4142C19.5531 3.28951 19.872 4.28545 20.1074 5.36213C21.3183 5.57138 22.4383 5.85495 23.4227 6.20676C23.8762 6.36882 24.2931 6.5437 24.6738 6.72963C23.6184 4.22988 21.3807 2.24026 18.5693 1.30176Z" fill="white"/>
<path d="M11.2696 18.6486C11.0604 18.3101 10.8638 17.9393 10.6815 17.5361C10.2858 16.6608 9.96686 15.665 9.73153 14.5882C8.52063 14.379 7.40056 14.0953 6.41614 13.7435C5.9627 13.5815 5.5458 13.4066 5.16504 13.2207C6.22052 15.7205 8.45815 17.7101 11.2696 18.6486Z" fill="white"/>
<path d="M17.6782 23.3744V20.8389C16.7902 21.0171 15.8669 21.1117 14.9192 21.1117C13.9715 21.1117 13.0482 21.0171 12.1602 20.8389V23.3744H17.6782Z" fill="white"/>
<path d="M12.6373 3.11409C12.3697 3.70609 12.1415 4.36416 11.9551 5.07209C12.9138 4.98447 13.9075 4.93922 14.9189 4.93922C15.9303 4.93922 16.924 4.98447 17.8827 5.07209C17.6963 4.36422 17.4681 3.70616 17.2004 3.11409C16.5315 1.63416 15.6572 0.714844 14.9189 0.714844C14.1805 0.714844 13.3063 1.63422 12.6373 3.11409Z" fill="white"/>
<path d="M17.2004 16.8368C17.468 16.2448 17.6963 15.5868 17.8827 14.8789C16.924 14.9665 15.9303 15.0118 14.9189 15.0118C13.9075 15.0118 12.9137 14.9666 11.9551 14.8789C12.1415 15.5868 12.3697 16.2448 12.6373 16.8368C13.3063 18.3168 14.1805 19.2361 14.9189 19.2361C15.6572 19.2361 16.5315 18.3167 17.2004 16.8368Z" fill="white"/>
<path d="M6.41614 6.20682C7.40056 5.85501 8.52063 5.57138 9.73153 5.3622C9.96686 4.28551 10.2858 3.28957 10.6815 2.41426C10.8638 2.01107 11.0604 1.64032 11.2696 1.30176C8.45808 2.24026 6.22052 4.22988 5.16504 6.7297C5.5458 6.54376 5.96277 6.36882 6.41614 6.20682Z" fill="white"/>
<path d="M11.5697 6.99704C11.434 7.94498 11.3633 8.94673 11.3633 9.97516C11.3633 11.0037 11.434 12.0054 11.5697 12.9534C12.6358 13.074 13.7624 13.1369 14.9191 13.1369C16.0758 13.1369 17.2024 13.074 18.2685 12.9534C18.4043 12.0054 18.475 11.0037 18.475 9.97516C18.475 8.94666 18.4043 7.94498 18.2685 6.99704C17.2024 6.87635 16.0758 6.81348 14.9191 6.81348C13.7624 6.81348 12.6358 6.87635 11.5697 6.99704Z" fill="white"/>
<path d="M9.4042 12.6107C9.30566 11.7584 9.25477 10.8747 9.25477 9.97537C9.25477 9.07606 9.30566 8.19243 9.4042 7.34006C8.60809 7.50581 7.86801 7.70868 7.20215 7.94668C5.53781 8.54149 4.50391 9.31887 4.50391 9.97537C4.50391 10.6319 5.53781 11.4092 7.20215 12.0041C7.86801 12.2421 8.60809 12.445 9.4042 12.6107Z" fill="white"/>
<path d="M24.7478 30.1307H16.0885C16.7699 29.7739 17.2274 29.1154 17.2274 28.3614C17.2274 27.2281 16.1941 26.3092 14.9194 26.3092C13.6448 26.3092 12.6114 27.2281 12.6114 28.3614C12.6114 29.1154 13.069 29.774 13.7504 30.1307H5.09099V16.8697C4.16977 15.8336 3.4514 14.6489 2.98868 13.3634V30.1307H0V32H29.8388V30.1307H26.8501V13.3633C26.3873 14.6488 25.669 15.8336 24.7478 16.8696V30.1307Z" fill="white"/>
<path d="M29.692 4.10437C30.9667 4.10437 32 3.18558 32 2.05219C32 0.918796 30.9667 0 29.692 0C28.4173 0 27.384 0.918796 27.384 2.05219C27.384 3.18558 28.4173 4.10437 29.692 4.10437Z" fill="white"/>
</g>
</g>
<defs>
<clipPath id="clip0_323_2279">
<rect width="32" height="32" fill="white"/>
</clipPath>
<clipPath id="clip1_323_2279">
<rect width="32" height="32" fill="white"/>
</clipPath>
</defs>
</svg>
