<svg width="32" height="32" viewBox="0 0 32 32" fill="none" xmlns="http://www.w3.org/2000/svg">
<g clip-path="url(#clip0_323_2232)">
<path d="M9.39599 29.9095H7.49512V31.9996H24.5042V29.9095H22.6034V27.6768H9.39599V29.9095Z" fill="white"/>
<path d="M32 0H0V20.9895H32V0ZM16 1.94648L19.8803 7.94433L16 13.9421L12.1197 7.94427L16 1.94648ZM6.19619 16.573C5.8995 16.6807 5.58644 16.7372 5.26538 16.7372C4.46513 16.7372 3.71281 16.3899 3.14694 15.7591C2.58113 15.1284 2.26944 14.2897 2.26944 13.3977C2.26944 12.5057 2.58106 11.667 3.14694 11.0363L7.13363 6.59234L11.1203 11.0363C11.6862 11.667 11.9978 12.5057 11.9978 13.3977C11.9978 14.2897 11.6862 15.1284 11.1203 15.7591C10.5545 16.3899 9.80219 16.7372 9.00194 16.7372C8.68088 16.7372 8.36781 16.6807 8.07113 16.573V18.7326H6.19613L6.19619 16.573ZM26.5565 16.7372C26.3583 16.7372 26.1634 16.7158 25.9735 16.6751V18.7325H24.0985V16.6751C23.9086 16.7158 23.7137 16.7372 23.5155 16.7372C21.8373 16.7372 20.472 15.2153 20.472 13.3446C20.472 12.1446 21.0374 11.0615 21.9183 10.4559C21.9149 10.3901 21.9132 10.3239 21.9132 10.2577C21.9132 8.38694 23.2785 6.8651 24.9567 6.8651C26.6349 6.8651 28.0002 8.38701 28.0002 10.2577C28.0002 10.2907 27.9998 10.3236 27.9989 10.3565C28.9632 10.9349 29.6 12.0691 29.6 13.3446C29.6 15.2153 28.2347 16.7372 26.5565 16.7372Z" fill="white"/>
<path d="M6.05797 14.2809L7.13372 13.0819L8.20941 14.2809C8.42116 14.517 8.70266 14.6469 9.00203 14.6469C9.30141 14.6469 9.58284 14.517 9.79459 14.2809C10.0063 14.0449 10.1229 13.7312 10.1229 13.3975C10.1229 13.0637 10.0063 12.75 9.79459 12.5139L7.13372 9.54785L4.47284 12.5139C4.26116 12.75 4.14453 13.0637 4.14453 13.3975C4.14453 13.7312 4.26116 14.0449 4.47284 14.2809C4.68459 14.517 4.96603 14.6469 5.26541 14.6469C5.56478 14.6469 5.84628 14.5169 6.05797 14.2809Z" fill="white"/>
<path d="M0 23.0801H32V25.5876H0V23.0801Z" fill="white"/>
<path d="M27.7247 13.3445C27.7247 12.7172 27.3239 12.1789 26.7717 12.0646L25.6949 11.8417L26.0586 10.6901C26.1026 10.5511 26.1249 10.4055 26.1249 10.2576C26.1249 9.53932 25.6007 8.95508 24.9564 8.95508C24.3121 8.95508 23.7879 9.53939 23.7879 10.2576C23.7879 10.4135 23.8122 10.5658 23.8602 10.7101L24.2202 11.7925L23.2182 12.0844C22.7051 12.2339 22.3467 12.752 22.3467 13.3445C22.3467 14.0628 22.8709 14.647 23.5152 14.647C23.8362 14.647 24.1359 14.5042 24.3587 14.2449L25.0357 13.4572L25.7127 14.2449C25.9356 14.5043 26.2351 14.647 26.5562 14.647C27.2005 14.6471 27.7247 14.0628 27.7247 13.3445Z" fill="white"/>
<path d="M14.4316 7.94414L16.0003 10.3687L17.5689 7.94414L16.0003 5.51953L14.4316 7.94414Z" fill="white"/>
</g>
<defs>
<clipPath id="clip0_323_2232">
<rect width="32" height="32" fill="white"/>
</clipPath>
</defs>
</svg>
