<svg width="32" height="32" viewBox="0 0 32 32" fill="none" xmlns="http://www.w3.org/2000/svg">
<g clip-path="url(#clip0_323_2298)">
<g clip-path="url(#clip1_323_2298)">
<path d="M2.17871 28.0781H29.8213V31.9996H2.17871V28.0781Z" fill="white"/>
<path d="M32 13.7771L27.1721 16.4375L23.8723 11.7225L21.0993 14.3312L17.0378 9.46213L18.6918 6.00401L15.966 0L13.1783 6.00258L14.9229 9.46205L10.8993 14.33L8.12763 11.7224L4.82788 16.4375L0 13.7771L2.065 25.8799H29.935L32 13.7771ZM11.1198 23.1445H9.28506V20.9459H11.1198V23.1445ZM14.9848 23.1445H13.1501V20.9459H14.9848V23.1445ZM18.8499 23.1445H17.0152V20.9459H18.8499V23.1445ZM22.7149 23.1445H20.8803V20.9459H22.7149V23.1445Z" fill="white"/>
</g>
</g>
<defs>
<clipPath id="clip0_323_2298">
<rect width="32" height="32" fill="white"/>
</clipPath>
<clipPath id="clip1_323_2298">
<rect width="32" height="32" fill="white"/>
</clipPath>
</defs>
</svg>
